<?xml version="1.0" standalone="no"?>
<!DOCTYPE svg PUBLIC "-//W3C//DTD SVG 20010904//EN"
 "http://www.w3.org/TR/2001/REC-SVG-20010904/DTD/svg10.dtd">
<svg version="1.0" xmlns="http://www.w3.org/2000/svg"
 width="242.000000pt" height="284.000000pt" viewBox="0 0 242.000000 284.000000"
 preserveAspectRatio="xMidYMid meet">

<g transform="translate(0.000000,284.000000) scale(0.100000,-0.100000)"
fill="#fff" stroke="none">
<path d="M1140 2791 c-272 -193 -575 -313 -897 -356 -65 -9 -133 -18 -150 -21
-19 -3 -37 -13 -44 -25 -15 -29 -15 -387 0 -529 69 -634 329 -1169 732 -1505
92 -77 271 -199 360 -245 l66 -34 89 48 c280 151 550 402 711 661 206 331 335
753 363 1193 10 153 4 385 -11 414 -10 18 -11 19 -189 42 -127 17 -276 52
-390 92 -121 43 -347 157 -460 233 -58 39 -110 71 -115 71 -6 0 -35 -18 -65
-39z m143 -109 c271 -183 608 -309 903 -337 40 -4 77 -11 85 -15 30 -19 20
-391 -16 -610 -44 -268 -127 -529 -236 -741 -161 -313 -391 -556 -707 -746
l-104 -62 -56 31 c-339 189 -604 462 -771 795 -115 232 -206 545 -242 838 -18
146 -18 483 0 494 7 5 45 12 85 16 295 29 665 166 906 338 36 26 69 46 73 47
4 0 40 -22 80 -48z"/>
<path d="M1165 2564 c-40 -30 -232 -134 -320 -172 -162 -71 -316 -115 -555
-159 l-45 -8 1 -160 c1 -242 34 -434 121 -715 134 -433 401 -781 771 -1005 74
-45 67 -46 212 50 447 297 707 762 804 1440 21 148 31 348 17 373 -8 15 -28
23 -83 32 -115 18 -302 68 -407 107 -110 41 -306 137 -396 194 -67 42 -89 47
-120 23z m123 -91 c202 -123 461 -222 719 -276 l108 -23 -2 -137 c-2 -225 -40
-426 -133 -709 -100 -303 -257 -545 -491 -754 -76 -68 -265 -204 -283 -204 -5
0 -54 30 -110 67 -72 48 -141 106 -242 207 -248 248 -365 460 -474 856 -55
199 -95 477 -88 610 l3 65 109 22 c243 49 476 137 683 258 60 34 112 63 116
64 5 0 43 -20 85 -46z"/>
</g>
</svg>
