<?xml version="1.0" standalone="no"?>
<!DOCTYPE svg PUBLIC "-//W3C//DTD SVG 20010904//EN"
 "http://www.w3.org/TR/2001/REC-SVG-20010904/DTD/svg10.dtd">
<svg version="1.0" xmlns="http://www.w3.org/2000/svg"
 width="714.000000pt" height="639.000000pt" viewBox="0 0 714.000000 639.000000"
 preserveAspectRatio="xMidYMid meet">

<g transform="translate(0.000000,639.000000) scale(0.100000,-0.100000)"
fill="#fff" stroke="none">
<path d="M4950 6243 c-479 -48 -939 -273 -1274 -623 -72 -74 -103 -94 -133
-83 -10 3 -67 56 -128 117 -183 186 -359 310 -586 412 -285 130 -633 192 -924
165 -282 -27 -474 -81 -719 -205 -827 -419 -1257 -1280 -1085 -2172 59 -307
212 -627 419 -878 32 -39 681 -692 1442 -1452 1089 -1088 1393 -1385 1429
-1402 124 -56 277 -46 382 26 54 38 2785 2772 2861 2865 223 274 377 633 427
997 18 130 15 409 -5 540 -45 285 -148 556 -303 791 -284 429 -774 769 -1251
868 -172 36 -399 50 -552 34z m-2850 -440 c15 -19 19 -35 15 -53 -13 -49 -29
-57 -138 -64 -135 -10 -272 -38 -392 -81 -97 -36 -122 -37 -150 -9 -21 21 -19
77 3 97 68 62 363 134 554 136 83 1 87 0 108 -26z m-1023 -405 c44 -41 33 -69
-71 -177 -228 -238 -357 -523 -388 -854 -37 -393 96 -793 356 -1073 104 -113
114 -138 74 -181 -37 -40 -76 -31 -134 30 -359 373 -514 879 -423 1382 53 297
226 625 437 828 78 74 108 84 149 45z m881 -1212 c42 -22 79 -67 91 -111 7
-25 11 -170 11 -393 l0 -352 483 2 482 3 5 382 c5 366 6 383 26 409 35 47 70
67 128 72 63 5 113 -18 156 -71 l25 -31 3 -918 c2 -895 2 -919 -17 -957 -32
-62 -109 -98 -182 -86 -41 7 -99 49 -122 89 -9 15 -13 129 -17 396 l-5 375
-482 3 -483 2 0 -352 c0 -225 -4 -367 -11 -393 -44 -159 -285 -160 -328 0 -14
50 -15 1761 -2 1819 10 39 60 102 96 116 32 14 114 11 143 -4z m2949 -24 c183
-48 330 -145 422 -280 66 -96 108 -296 91 -437 -28 -239 -142 -401 -353 -505
-135 -66 -187 -73 -557 -79 l-335 -6 -5 -305 c-3 -204 -9 -312 -17 -325 -29
-50 -105 -95 -160 -95 -49 1 -110 36 -140 81 l-28 43 -3 870 c-2 612 1 886 9
924 8 41 20 63 49 92 21 21 49 41 62 43 13 3 217 4 453 3 402 -3 435 -4 512
-24z"/>
<path d="M4178 3854 c-5 -4 -8 -155 -8 -337 l0 -329 308 5 c316 4 359 9 439
51 97 49 153 139 161 252 11 170 -78 291 -253 341 -55 16 -634 32 -647 17z"/>
</g>
</svg>
