<?xml version="1.0" standalone="no"?>
<!DOCTYPE svg PUBLIC "-//W3C//DTD SVG 20010904//EN"
 "http://www.w3.org/TR/2001/REC-SVG-20010904/DTD/svg10.dtd">
<svg version="1.0" xmlns="http://www.w3.org/2000/svg"
 width="649.000000pt" height="508.000000pt" viewBox="0 0 649.000000 508.000000"
 preserveAspectRatio="xMidYMid meet">

<g transform="translate(0.000000,508.000000) scale(0.100000,-0.100000)"
fill="#fff" stroke="none">
<path d="M2027 4962 c-31 -32 -34 -68 -12 -115 16 -35 39 -100 88 -246 34
-105 35 -88 -13 -356 -25 -144 -25 -161 5 -190 l24 -25 1226 0 1226 0 26 26
c23 23 25 31 20 82 -3 31 -15 109 -27 172 -34 185 -31 219 35 400 71 192 76
220 41 254 l-25 26 -1294 0 -1293 0 -27 -28z"/>
<path d="M2290 3725 c-22 -24 -23 -27 -18 -207 3 -114 9 -191 17 -205 16 -31
38 -41 142 -64 145 -31 229 -77 329 -178 66 -66 101 -113 150 -199 80 -138
244 -423 487 -842 370 -637 358 -611 358 -770 -1 -103 -4 -122 -28 -179 -95
-226 -273 -340 -512 -328 -118 5 -182 27 -276 92 -71 50 -98 54 -149 25 -90
-52 -183 -91 -270 -114 -140 -38 -134 -23 -126 -296 4 -124 12 -242 17 -262
14 -56 65 -103 130 -122 50 -15 234 -16 1914 -14 l1860 3 50 25 c38 19 55 35
73 70 21 42 22 56 22 251 0 114 -5 242 -11 284 -17 124 -87 289 -167 395 -44
59 -150 156 -221 204 -66 45 -96 60 -246 121 -158 65 -363 149 -505 207 -232
96 -295 122 -465 191 -88 36 -198 82 -245 102 -47 20 -105 43 -130 52 -25 8
-58 29 -74 46 l-29 30 7 206 c4 113 12 276 17 361 9 141 19 320 49 860 6 102
8 199 5 217 -12 67 59 63 -1090 63 l-1042 0 -23 -25z"/>
<path d="M87 3340 c-89 -105 -94 -319 -11 -490 45 -93 94 -162 173 -243 148
-153 300 -227 556 -274 84 -15 155 -18 440 -18 217 0 369 4 420 12 233 36 249
37 288 18 107 -51 101 -204 -11 -251 -106 -44 -601 -90 -870 -81 -195 7 -199
5 -167 -118 27 -100 113 -237 192 -301 92 -75 164 -115 278 -152 74 -25 335
-24 430 1 102 27 238 69 250 77 6 4 28 13 50 20 22 7 98 41 169 76 72 35 140
64 153 64 41 0 92 -28 113 -62 43 -70 17 -133 -82 -198 -94 -62 -266 -144
-365 -175 -118 -36 -133 -43 -133 -56 0 -21 79 -86 143 -117 92 -45 144 -55
261 -50 114 5 169 25 311 112 163 101 203 119 248 113 44 -6 46 -8 119 -107
52 -70 107 -103 178 -108 142 -10 250 88 250 228 0 77 1 75 -275 550 -81 139
-193 335 -253 440 -35 63 -72 126 -81 140 -10 14 -67 112 -127 219 -174 309
-212 339 -484 387 -235 41 -463 83 -865 159 -104 19 -242 45 -305 56 -63 12
-173 32 -245 45 -71 13 -179 33 -240 43 -60 11 -130 24 -155 30 -79 18 -240
41 -285 41 -36 0 -48 -5 -68 -30z"/>
</g>
</svg>
