<?xml version="1.0" standalone="no"?>
<!DOCTYPE svg PUBLIC "-//W3C//DTD SVG 20010904//EN"
 "http://www.w3.org/TR/2001/REC-SVG-20010904/DTD/svg10.dtd">
<svg version="1.0" xmlns="http://www.w3.org/2000/svg"
 width="438.000000pt" height="572.000000pt" viewBox="0 0 438.000000 572.000000"
 preserveAspectRatio="xMidYMid meet">

<g transform="translate(0.000000,572.000000) scale(0.100000,-0.100000)"
fill="#fff" stroke="none">
<path d="M2340 5663 c-404 -20 -743 -144 -1085 -397 -153 -114 -312 -295 -435
-497 -236 -383 -344 -834 -312 -1306 l11 -168 -48 -90 c-27 -49 -108 -200
-181 -335 -208 -384 -220 -408 -220 -450 0 -22 5 -51 11 -67 11 -30 62 -88 94
-106 13 -8 99 -14 239 -17 l219 -5 127 -500 c70 -275 135 -517 144 -538 25
-58 93 -125 161 -160 56 -29 67 -32 160 -32 l100 0 260 129 c605 299 648 319
692 320 69 2 143 -72 143 -141 0 -86 -24 -107 -273 -237 -70 -37 -134 -78
-143 -91 -36 -55 -32 -74 97 -465 110 -335 126 -376 158 -410 72 -76 161 -73
276 9 53 38 325 226 565 392 47 32 105 73 129 90 24 17 87 61 140 97 53 36
130 90 171 118 41 29 126 88 188 130 62 43 131 97 153 121 79 86 114 211 90
323 -7 33 -54 134 -121 260 -135 255 -145 284 -145 420 0 156 9 178 174 441
193 308 333 696 382 1058 49 368 7 687 -134 1011 -251 575 -653 914 -1237
1043 -165 37 -395 57 -550 50z m308 -483 c484 -51 872 -355 1016 -796 63 -190
85 -445 48 -556 -58 -174 -186 -286 -373 -324 -83 -17 -90 -17 -170 0 -46 10
-120 35 -164 56 -44 21 -111 52 -150 70 -38 18 -113 53 -165 77 -52 25 -147
69 -210 98 -154 71 -253 117 -385 179 -60 29 -168 79 -240 112 -164 75 -245
145 -303 263 -37 76 -37 76 -37 206 0 126 1 132 32 198 42 89 124 174 227 235
259 155 552 216 874 182z"/>
</g>
</svg>
