<?xml version="1.0" standalone="no"?>
<!DOCTYPE svg PUBLIC "-//W3C//DTD SVG 20010904//EN"
 "http://www.w3.org/TR/2001/REC-SVG-20010904/DTD/svg10.dtd">
<svg version="1.0" xmlns="http://www.w3.org/2000/svg"
 width="213.000000pt" height="215.000000pt" viewBox="0 0 213.000000 215.000000"
 preserveAspectRatio="xMidYMid meet">

<g transform="translate(0.000000,215.000000) scale(0.100000,-0.100000)"
fill="#fff" stroke="none">
<path d="M226 2004 c-10 -64 -20 -122 -23 -129 -2 -7 -37 -21 -76 -30 -40 -10
-75 -21 -80 -24 -4 -4 29 -15 73 -25 54 -13 81 -24 84 -35 3 -9 13 -67 22
-128 10 -62 19 -111 21 -109 2 2 12 56 23 121 11 64 22 121 25 125 3 5 39 16
80 26 41 10 75 21 75 24 0 3 -34 14 -75 24 -41 10 -77 21 -80 26 -3 4 -14 61
-25 125 -11 65 -21 119 -23 121 -2 2 -12 -48 -21 -112z"/>
<path d="M1539 1944 c-17 -21 1 -91 44 -163 38 -64 179 -216 246 -265 70 -51
144 -86 185 -86 30 0 37 4 42 25 11 43 -5 91 -55 168 -81 123 -253 279 -354
322 -47 19 -91 19 -108 -1z"/>
<path d="M1081 1826 l-86 -83 -75 -6 c-272 -23 -523 -187 -661 -432 -224 -399
-75 -914 333 -1148 70 -41 212 -85 316 -98 269 -34 572 88 744 300 107 133
175 298 185 451 l5 85 73 75 c83 85 95 105 95 153 0 44 -29 127 -43 127 -7 0
-24 -11 -39 -25 -27 -23 -27 -24 -12 -61 20 -49 8 -62 -43 -46 -49 15 -136 64
-140 78 -2 6 37 41 87 78 49 36 90 70 90 74 0 5 -19 18 -42 28 -135 61 -318
246 -397 402 l-22 44 -70 -94 c-39 -51 -74 -94 -78 -96 -12 -4 -71 90 -88 140
-18 53 -8 63 48 44 44 -16 44 -16 66 12 13 15 23 32 23 38 0 18 -81 44 -134
44 -47 0 -51 -2 -135 -84z m174 -301 c128 -172 384 -399 531 -471 l55 -27 -47
-48 c-29 -30 -57 -49 -70 -49 -13 0 -53 16 -91 36 -196 102 -478 384 -572 571
-43 87 -41 108 17 159 l47 42 35 -67 c19 -36 62 -102 95 -146z m-315 100 c0
-95 118 -276 299 -456 196 -196 363 -312 470 -326 38 -5 41 -8 41 -37 -1 -98
-73 -276 -154 -378 -96 -120 -257 -225 -406 -265 -99 -27 -292 -24 -393 5
-262 75 -463 284 -537 557 -34 126 -20 320 32 446 66 160 210 322 353 396 83
43 205 81 263 82 28 1 32 -2 32 -24z"/>
<path d="M472 1263 c-20 -8 -57 -72 -85 -149 -61 -170 -53 -353 24 -508 81
-163 206 -272 384 -332 227 -76 471 -17 647 156 80 79 117 141 118 196 0 62
-30 135 -78 186 -126 134 -318 159 -569 72 -123 -43 -189 -47 -250 -15 -88 45
-124 113 -130 246 -2 50 -6 100 -9 112 -5 25 -32 43 -52 36z"/>
<path d="M1956 430 c-4 -30 -9 -65 -12 -76 -6 -24 -42 -44 -79 -44 -42 0 -27
-17 21 -25 52 -7 58 -17 70 -111 l8 -59 12 74 c7 41 17 78 22 83 5 5 28 12 51
15 44 6 57 23 17 23 -51 0 -75 17 -81 57 -4 21 -10 56 -14 78 l-7 40 -8 -55z"/>
</g>
</svg>
