<?xml version="1.0" standalone="no"?>
<!DOCTYPE svg PUBLIC "-//W3C//DTD SVG 20010904//EN"
 "http://www.w3.org/TR/2001/REC-SVG-20010904/DTD/svg10.dtd">
<svg version="1.0" xmlns="http://www.w3.org/2000/svg"
 width="322.000000pt" height="368.000000pt" viewBox="0 0 322.000000 368.000000"
 preserveAspectRatio="xMidYMid meet">

<g transform="translate(0.000000,368.000000) scale(0.100000,-0.100000)"
fill="#fff" stroke="none">
<path d="M421 3628 c-75 -40 -89 -137 -99 -691 -7 -379 -8 -399 -26 -413 -11
-8 -28 -14 -38 -14 -35 0 -205 -60 -221 -78 -22 -24 -21 -55 1 -75 25 -22 43
-21 135 8 115 37 119 36 111 -27 -4 -29 -9 -56 -13 -59 -3 -3 -40 -18 -83 -33
-42 -15 -97 -40 -122 -56 -38 -24 -46 -35 -46 -59 0 -33 22 -61 49 -61 10 0
57 18 104 40 47 22 92 40 100 40 11 0 20 -23 32 -77 24 -115 109 -282 184
-365 48 -52 118 -112 169 -144 1 0 -26 -44 -61 -96 -77 -116 -150 -276 -184
-405 -35 -135 -43 -347 -17 -483 9 -52 18 -142 18 -200 1 -97 3 -109 31 -159
30 -54 83 -104 145 -137 57 -30 171 -26 241 9 31 15 60 27 66 27 5 0 36 -14
69 -32 53 -29 67 -32 144 -32 61 1 102 7 144 22 52 19 80 22 225 22 147 0 172
-3 221 -22 38 -15 78 -22 130 -22 78 -1 117 10 182 51 l37 23 37 -25 c45 -30
95 -45 155 -45 137 0 273 120 294 260 l7 45 71 18 c212 53 403 209 492 402
111 238 94 631 -38 894 -45 92 -79 124 -127 124 -98 0 -150 -169 -165 -542 -7
-173 -25 -247 -76 -324 -34 -52 -118 -122 -130 -110 -4 5 -14 57 -23 116 -27
189 -100 374 -210 535 l-55 81 49 36 c27 20 81 70 120 112 82 87 151 216 176
328 9 39 20 80 25 92 l9 23 63 -24 c36 -13 78 -31 95 -40 40 -21 65 -20 85 2
47 52 -12 107 -178 167 -69 26 -75 32 -75 82 0 26 5 46 13 48 6 3 44 -4 82
-16 39 -12 88 -22 110 -23 32 -1 42 3 54 25 13 24 13 29 -2 52 -13 20 -40 34
-112 56 -52 17 -108 31 -124 31 -17 0 -31 6 -35 16 -3 9 -6 95 -6 192 -1 418
-26 806 -56 864 -20 38 -68 62 -111 55 -67 -11 -265 -160 -440 -330 l-101 -99
-77 12 c-62 9 -150 8 -202 -3 -4 -1 -11 13 -15 31 -13 49 -45 60 -116 38 -31
-10 -69 -25 -85 -32 -26 -14 -28 -13 -37 10 -10 28 -38 46 -72 46 -31 0 -163
-59 -220 -98 l-46 -32 -64 66 c-82 85 -291 260 -393 330 -86 58 -135 73 -174
52z m234 -262 c119 -96 315 -284 315 -303 0 -7 -6 -13 -13 -13 -7 0 -50 -18
-95 -40 -146 -70 -280 -172 -354 -267 -22 -29 -44 -53 -49 -53 -23 0 -1 738
23 783 8 17 11 16 41 -5 18 -12 77 -58 132 -102z m1819 67 c22 -180 34 -753
16 -753 -5 0 -10 4 -10 10 0 19 -136 154 -213 211 -75 56 -245 149 -272 149
-33 0 -23 26 31 82 121 122 402 356 430 358 6 0 14 -26 18 -57z m-1455 -1004
c134 -28 218 -171 181 -307 -14 -52 -77 -125 -135 -155 -60 -31 -149 -29 -207
6 -88 51 -131 122 -132 217 -1 131 91 228 236 249 4 1 30 -4 57 -10z m1061
-16 c87 -35 140 -120 140 -223 0 -82 -23 -134 -80 -183 -56 -47 -97 -60 -180
-55 -84 4 -138 38 -185 112 -40 66 -47 163 -16 224 65 127 193 177 321 125z
m-546 -233 c14 -5 32 -21 42 -35 21 -32 6 -73 -36 -97 -21 -12 -27 -22 -23
-37 8 -31 79 -91 107 -91 24 0 56 -23 56 -40 0 -5 -7 -16 -16 -24 -32 -32
-108 -13 -166 42 l-27 25 -35 -31 c-32 -28 -89 -52 -123 -52 -7 0 -22 9 -33
20 -16 16 -18 25 -10 40 6 11 20 20 31 20 33 0 94 37 107 65 17 38 15 51 -13
69 -36 24 -49 53 -36 83 20 44 113 67 175 43z m-759 -1281 c22 -193 71 -385
142 -552 13 -33 22 -64 20 -70 -5 -16 -91 127 -128 212 -58 138 -82 251 -83
396 -2 217 24 225 49 14z m1439 135 c29 -74 9 -288 -39 -444 -42 -134 -164
-353 -165 -297 0 10 10 37 21 60 70 135 138 406 155 615 6 79 15 100 28 66z
m-483 -226 c-30 -159 -44 -291 -45 -435 -1 -111 -3 -130 -15 -120 -61 51 -53
321 15 539 30 93 55 149 61 131 2 -6 -5 -58 -16 -115z m-491 55 c77 -204 104
-505 54 -590 -24 -41 -50 -54 -39 -21 14 48 17 169 6 282 -11 109 -43 312 -57
364 -13 47 16 19 36 -35z"/>
<path d="M894 2266 c-28 -28 -34 -42 -34 -76 0 -56 50 -110 102 -110 107 0
155 134 71 200 -42 33 -98 27 -139 -14z"/>
<path d="M1934 2290 c-12 -4 -31 -21 -44 -37 -28 -36 -23 -102 10 -138 67 -71
190 -20 190 77 0 32 -7 47 -34 74 -35 35 -75 43 -122 24z"/>
</g>
</svg>
