<?xml version="1.0" standalone="no"?>
<!DOCTYPE svg PUBLIC "-//W3C//DTD SVG 20010904//EN"
 "http://www.w3.org/TR/2001/REC-SVG-20010904/DTD/svg10.dtd">
<svg version="1.0" xmlns="http://www.w3.org/2000/svg"
 width="512.000000pt" height="512.000000pt" viewBox="0 0 512.000000 512.000000"
 preserveAspectRatio="xMidYMid meet">

<g transform="translate(0.000000,512.000000) scale(0.100000,-0.100000)"
fill="#fff" stroke="none">
<path d="M845 4246 c-219 -41 -398 -202 -468 -421 -23 -71 -270 -1681 -263
-1710 4 -14 18 -32 31 -41 33 -22 85 -8 102 26 7 14 69 393 138 842 69 450
132 836 140 858 52 148 196 270 354 300 74 14 566 13 633 -1 64 -14 134 -48
202 -99 70 -52 144 -87 218 -105 95 -22 1167 -22 1253 0 81 21 159 58 220 104
68 51 139 86 203 100 67 14 559 15 633 1 134 -26 268 -125 328 -243 21 -41 38
-98 50 -165 11 -63 26 -110 36 -122 24 -26 79 -26 105 0 25 25 25 59 0 180
-56 272 -244 456 -511 499 -100 17 -590 14 -672 -4 -86 -18 -166 -54 -235
-106 -29 -23 -83 -55 -120 -72 l-67 -32 -575 -3 c-560 -3 -577 -2 -640 18 -36
12 -90 39 -120 60 -91 65 -151 99 -220 122 -61 20 -86 22 -375 24 -224 2 -330
-1 -380 -10z"/>
<path d="M3555 3756 c-148 -69 -207 -248 -127 -389 110 -197 393 -188 498 15
22 43 30 147 14 201 -18 66 -76 136 -139 169 -71 38 -171 39 -246 4z m183
-140 c62 -34 81 -125 39 -187 -45 -67 -136 -75 -195 -18 -56 55 -55 128 3 186
28 28 40 33 82 33 26 -1 58 -6 71 -14z"/>
<path d="M1325 3711 c-54 -14 -112 -50 -144 -88 -46 -56 -61 -112 -61 -229 l0
-102 -117 -4 c-103 -4 -125 -8 -169 -31 -159 -81 -191 -290 -63 -415 57 -56
92 -67 225 -70 l122 -4 4 -121 c4 -135 17 -175 79 -235 95 -92 261 -95 353 -6
66 64 80 104 84 242 l4 122 107 0 c127 0 183 16 235 66 133 129 104 338 -58
421 -44 23 -66 27 -168 31 l-118 4 0 102 c0 117 -15 173 -61 229 -56 68 -175
109 -254 88z m100 -155 c56 -24 65 -55 65 -219 0 -131 2 -147 21 -171 20 -26
21 -26 165 -26 168 0 205 -10 230 -63 23 -48 12 -98 -27 -131 -30 -25 -35 -26
-175 -26 -158 0 -199 -11 -209 -53 -2 -12 -6 -89 -7 -170 l-3 -149 -33 -29
c-45 -40 -99 -40 -144 0 l-33 29 -3 149 c-1 81 -5 158 -7 170 -10 42 -51 53
-209 53 -140 0 -145 1 -175 26 -39 33 -50 83 -27 131 25 53 62 63 230 63 144
0 145 0 165 26 19 24 21 40 21 171 0 163 9 195 63 218 41 18 50 18 92 1z"/>
<path d="M4716 3329 c-19 -15 -26 -30 -26 -56 0 -19 63 -443 141 -941 155
-1003 154 -983 100 -1098 -49 -104 -142 -180 -258 -211 -117 -31 -307 5 -443
84 -116 68 -189 153 -370 433 -181 279 -249 359 -340 402 -58 28 -149 48 -212
48 l-38 0 0 63 c0 34 -5 79 -10 99 -17 59 -69 120 -129 151 l-55 27 -515 0
c-497 0 -518 -1 -561 -21 -98 -44 -141 -113 -148 -236 l-5 -83 -36 0 c-63 0
-153 -21 -211 -48 -91 -43 -159 -123 -340 -402 -224 -347 -312 -431 -512 -495
-253 -80 -467 -8 -559 189 -43 92 -46 158 -15 354 32 200 32 233 6 257 -27 24
-76 23 -101 -2 -29 -28 -83 -377 -75 -484 21 -299 279 -517 585 -496 216 16
408 105 561 261 25 25 133 178 240 339 213 319 236 344 340 366 71 15 1589 15
1660 0 104 -22 127 -47 340 -367 111 -166 219 -316 250 -348 61 -62 189 -150
265 -183 77 -34 192 -61 286 -68 309 -22 567 200 585 502 4 69 -16 213 -140
1010 -142 909 -145 931 -171 953 -32 27 -55 28 -89 1z m-1645 -1159 c30 -17
49 -64 49 -125 l0 -55 -560 0 -560 0 0 55 c0 59 18 107 47 124 25 14 997 15
1024 1z"/>
<path d="M3106 3294 c-69 -22 -157 -111 -177 -179 -40 -140 18 -277 143 -339
66 -33 171 -36 234 -7 182 83 226 313 87 456 -70 72 -188 101 -287 69z m144
-149 c125 -64 86 -245 -53 -245 -78 0 -130 52 -130 128 0 51 24 89 74 114 42
22 71 23 109 3z"/>
<path d="M4058 3293 c-60 -20 -120 -71 -156 -131 -24 -41 -27 -57 -27 -132 0
-100 17 -143 82 -207 51 -49 115 -73 197 -73 208 0 341 230 238 413 -66 118
-206 173 -334 130z m151 -151 c62 -33 87 -111 56 -172 -24 -46 -62 -70 -112
-70 -79 0 -133 51 -133 127 0 100 102 162 189 115z"/>
<path d="M3570 2813 c-27 -10 -65 -37 -97 -68 -211 -212 18 -560 299 -455 106
40 177 144 178 260 0 197 -191 329 -380 263z m197 -177 c55 -60 43 -146 -26
-193 -70 -48 -163 -16 -191 65 -13 37 -13 47 0 84 21 61 69 91 134 85 41 -4
55 -11 83 -41z"/>
</g>
</svg>
