<?xml version="1.0" standalone="no"?>
<!DOCTYPE svg PUBLIC "-//W3C//DTD SVG 20010904//EN"
 "http://www.w3.org/TR/2001/REC-SVG-20010904/DTD/svg10.dtd">
<svg version="1.0" xmlns="http://www.w3.org/2000/svg"
 width="958.000000pt" height="964.000000pt" viewBox="0 0 958.000000 964.000000"
 preserveAspectRatio="xMidYMid meet">

<g transform="translate(0.000000,964.000000) scale(0.100000,-0.100000)"
fill="#fff" stroke="none">
<path d="M4680 9251 c-36 -15 -148 -77 -250 -136 -102 -59 -264 -153 -360
-208 -96 -55 -238 -137 -315 -183 -77 -45 -232 -135 -345 -199 -113 -65 -317
-183 -455 -263 -137 -79 -293 -169 -345 -199 -52 -30 -102 -58 -110 -64 -8 -5
-69 -40 -135 -77 -66 -38 -165 -95 -220 -127 -427 -247 -719 -417 -770 -445
-187 -104 -305 -179 -342 -218 -24 -24 -62 -82 -85 -130 l-43 -85 -3 -2091
c-2 -2070 -2 -2092 18 -2155 40 -128 129 -228 275 -308 75 -42 506 -290 1420
-818 88 -51 270 -156 405 -234 135 -78 252 -146 260 -151 13 -8 103 -60 240
-138 19 -11 193 -111 385 -222 833 -482 775 -455 945 -448 126 5 129 6 440
186 118 69 294 170 390 225 96 55 238 137 315 182 141 82 229 133 885 512 195
112 362 208 370 213 19 12 387 224 680 393 124 71 239 137 255 147 17 9 107
61 200 114 201 114 266 173 324 295 l36 76 3 2075 c2 1551 0 2089 -9 2130 -26
125 -106 235 -222 308 -34 21 -233 137 -442 257 -209 120 -560 323 -780 450
-220 128 -422 244 -450 259 -27 16 -54 32 -60 36 -5 4 -62 37 -125 72 -63 36
-272 156 -465 268 -192 111 -438 253 -545 315 -107 62 -298 172 -425 245 -126
73 -254 141 -282 152 -81 28 -183 24 -263 -11z m55 -887 l0 -739 -205 -27
c-190 -25 -435 -58 -690 -94 -58 -8 -310 -41 -560 -74 -974 -128 -1505 -199
-1723 -230 -76 -11 -143 -17 -149 -14 -11 7 77 58 1097 646 143 83 315 182
383 222 68 39 142 82 165 95 23 13 157 90 297 171 140 81 287 165 325 188 176
101 611 352 815 471 124 72 230 129 235 127 7 -2 10 -258 10 -742z m388 635
c301 -175 369 -214 417 -241 25 -14 86 -49 135 -78 50 -29 205 -119 345 -199
239 -138 684 -395 1110 -641 102 -59 257 -149 345 -200 88 -51 194 -112 235
-135 183 -103 516 -297 525 -306 15 -15 -62 -10 -246 16 -96 13 -365 49 -599
80 -1075 141 -1561 206 -2090 278 l-385 53 -3 742 c-1 507 1 742 8 742 6 0 97
-50 203 -111z m-478 -1569 c5 -8 -228 -422 -455 -810 -37 -63 -119 -205 -182
-315 -64 -110 -140 -243 -170 -295 -31 -52 -89 -153 -130 -225 -103 -179 -367
-637 -378 -655 -11 -18 -72 -124 -433 -750 -154 -267 -288 -498 -298 -515 -10
-16 -41 -70 -69 -120 -124 -222 -226 -389 -235 -386 -5 2 -60 150 -121 330
-61 179 -114 333 -117 341 -3 8 -87 258 -186 555 -99 297 -267 794 -372 1105
-262 777 -409 1219 -409 1234 0 41 19 47 320 87 162 22 324 43 360 48 132 18
1213 162 1440 192 269 35 797 106 1140 154 266 37 287 39 295 25z m680 -30
c121 -16 402 -54 625 -84 223 -30 614 -82 870 -116 256 -33 578 -76 715 -95
138 -18 408 -54 600 -80 193 -25 365 -53 383 -61 33 -14 34 -16 29 -62 -3 -26
-92 -306 -199 -622 -107 -316 -262 -777 -345 -1025 -450 -1338 -635 -1881
-644 -1890 -14 -13 -25 2 -111 155 -63 110 -381 661 -581 1005 -38 66 -97 170
-131 230 -34 61 -153 265 -263 455 -176 302 -309 533 -485 840 -27 47 -53 92
-58 100 -6 8 -41 69 -78 135 -38 66 -145 251 -237 410 -280 482 -415 722 -415
735 0 9 13 11 53 6 28 -4 151 -20 272 -36z m-445 -112 c22 -40 45 -80 50 -88
12 -19 241 -416 331 -575 38 -66 78 -136 90 -155 11 -19 40 -69 64 -110 23
-41 118 -205 211 -365 92 -159 234 -405 314 -545 81 -140 207 -358 280 -485
304 -527 439 -760 540 -935 59 -102 184 -319 279 -483 95 -164 171 -306 169
-315 -3 -16 -153 -17 -2368 -20 -1301 -1 -2375 0 -2387 3 -13 3 -23 10 -23 15
0 5 38 74 84 152 46 79 110 190 143 248 33 58 106 183 161 278 56 96 102 175
102 177 0 2 44 79 98 172 54 92 203 350 332 573 340 591 478 829 615 1065 67
116 134 230 147 255 60 106 345 599 661 1143 21 37 45 67 52 67 8 0 32 -33 55
-72z m-3625 -1403 c371 -1097 896 -2686 893 -2702 -2 -10 -158 -82 -468 -214
-256 -110 -489 -207 -518 -216 -51 -16 -53 -16 -80 4 l-27 20 -3 704 -2 703
32 -31 c38 -37 95 -63 136 -63 47 0 147 57 196 111 111 124 125 327 36 514
-39 82 -106 145 -155 145 -69 0 -128 -50 -160 -135 -35 -90 -3 -269 64 -364
30 -41 26 -51 -18 -51 -33 0 -44 6 -71 38 -62 75 -60 38 -60 1130 0 548 2 993
4 991 2 -2 93 -265 201 -584z m7336 -1265 c-5 -14 -12 -51 -16 -82 -4 -32 -10
-58 -14 -58 -4 0 -76 65 -161 145 -162 151 -187 165 -214 123 -20 -32 -46
-126 -40 -143 7 -18 402 -388 432 -404 l22 -12 0 -688 0 -688 -23 -21 c-49
-46 -76 -47 -174 -7 -317 132 -890 379 -901 389 -11 10 15 96 138 462 83 247
328 980 545 1629 217 649 398 1187 402 1195 12 22 15 -1810 4 -1840z m-7235
-3 c23 -20 28 -34 32 -84 4 -59 3 -62 -32 -99 l-36 -39 -30 32 c-33 37 -54
100 -44 138 6 24 56 75 74 75 5 0 21 -11 36 -23z m5812 -1596 c-12 -16 -169
-189 -534 -586 -186 -202 -693 -754 -989 -1075 -154 -168 -359 -390 -455 -495
-96 -104 -210 -229 -253 -278 -108 -120 -114 -120 -234 10 -49 54 -300 328
-558 608 -258 281 -510 555 -560 610 -305 333 -476 519 -770 839 -181 197
-334 364 -338 372 -7 12 337 14 2348 14 2305 0 2356 0 2343 -19z m-4857 -68
c35 -38 132 -142 215 -233 83 -91 337 -368 565 -616 1086 -1182 1254 -1366
1258 -1376 2 -7 -3 -9 -12 -5 -9 3 -225 126 -479 273 -1101 635 -1268 732
-1268 740 0 3 20 2 45 -1 96 -15 198 34 211 100 27 146 -339 494 -522 495 -83
0 -108 -54 -64 -140 25 -49 158 -190 218 -232 51 -35 53 -48 8 -48 -54 0 -173
86 -257 185 -70 84 -84 95 -120 95 -32 0 -33 -28 -4 -72 38 -57 115 -138 131
-138 8 0 14 -5 14 -12 0 -6 7 -20 17 -30 30 -33 8 -28 -68 15 -265 153 -644
372 -819 474 -116 67 -205 125 -205 133 0 9 180 91 520 236 286 122 527 223
536 223 9 1 45 -29 80 -66z m5289 -9 c102 -42 204 -84 227 -95 23 -10 44 -19
47 -19 2 0 33 -13 68 -29 35 -17 133 -59 218 -94 279 -117 315 -134 315 -148
0 -7 -38 -35 -85 -62 -47 -27 -114 -66 -150 -87 -36 -20 -121 -70 -190 -110
-69 -40 -145 -84 -170 -98 -25 -14 -182 -105 -350 -202 -168 -97 -408 -236
-535 -309 -126 -73 -237 -136 -245 -141 -17 -10 -165 -95 -465 -268 -110 -63
-279 -161 -375 -217 -96 -56 -195 -114 -220 -128 -25 -13 -120 -68 -212 -122
-92 -53 -172 -95 -178 -93 -5 1 83 105 198 229 114 124 374 407 577 629 204
222 397 433 431 469 65 70 295 322 663 723 124 136 231 247 236 248 6 0 94
-34 195 -76z m-5064 -802 c32 -10 114 -109 114 -137 0 -13 -10 -31 -21 -39
-19 -13 -26 -13 -49 -1 -43 22 -119 101 -126 131 -11 43 26 63 82 46z"/>
<path d="M4113 8410 c-97 -20 -233 -107 -311 -199 -133 -158 -218 -373 -182
-460 19 -47 53 -63 130 -63 182 2 377 158 498 397 60 120 79 236 46 284 -32
45 -91 58 -181 41z m-9 -156 c22 -22 20 -62 -7 -137 -56 -153 -173 -287 -251
-287 -31 0 -48 31 -42 74 8 49 43 141 68 178 10 14 18 30 18 35 0 5 23 35 52
67 70 79 128 104 162 70z"/>
<path d="M3491 8290 c-135 -57 -191 -107 -191 -169 0 -32 18 -34 76 -11 30 13
57 20 59 18 6 -5 -62 -154 -158 -346 -71 -143 -70 -158 6 -155 84 2 90 9 194
228 52 110 119 248 149 308 30 59 54 115 54 125 0 54 -64 54 -189 2z"/>
<path d="M5289 8443 c-20 -2 -44 -12 -54 -23 -16 -17 -16 -21 0 -54 9 -19 32
-46 50 -61 28 -21 44 -25 98 -25 l64 0 98 -231 c106 -248 127 -278 202 -298
69 -18 123 -24 123 -13 0 10 -19 57 -58 142 -11 25 -60 137 -107 250 -48 113
-97 219 -110 235 -12 17 -47 42 -77 58 -55 27 -112 32 -229 20z"/>
<path d="M5791 8374 c-31 -22 -22 -66 21 -111 31 -32 34 -33 94 -27 172 18
303 -93 216 -182 -15 -16 -60 -54 -99 -84 -103 -78 -108 -115 -24 -202 l47
-50 239 -49 c132 -27 247 -46 257 -43 10 3 18 12 18 20 0 24 -39 93 -58 102
-9 5 -80 22 -157 37 -77 15 -144 31 -148 35 -5 4 12 23 38 41 137 99 160 139
130 230 -40 119 -223 247 -407 284 -98 19 -138 19 -167 -1z"/>
<path d="M2380 6713 c-202 -71 -410 -373 -410 -595 0 -116 46 -203 136 -258
69 -42 136 -50 218 -26 72 21 86 12 86 -53 0 -103 62 -204 154 -250 108 -54
257 -13 390 108 51 46 144 179 190 271 125 251 86 459 -103 543 -57 25 -162
19 -238 -13 -63 -27 -83 -18 -83 39 0 95 -60 183 -154 227 -59 28 -120 30
-186 7z m57 -302 c25 -12 48 -32 57 -50 20 -38 21 -133 1 -171 -19 -37 -101
-80 -151 -80 -70 0 -134 65 -134 134 0 62 56 145 115 172 41 18 63 17 112 -5z
m433 -237 c100 -40 121 -165 45 -274 -69 -100 -185 -111 -264 -26 -33 35 -40
123 -17 194 13 39 26 56 59 78 67 44 116 52 177 28z"/>
<path d="M7095 6538 c-31 -24 -55 -75 -55 -115 1 -23 12 -36 66 -72 126 -85
209 -235 158 -285 -35 -35 -108 -18 -387 93 -229 91 -277 99 -337 59 -51 -35
-73 -71 -77 -130 -4 -53 -4 -54 89 -189 51 -75 136 -198 188 -275 119 -174
166 -224 209 -224 18 0 45 7 61 15 35 18 80 75 80 101 0 11 -49 92 -110 179
-60 87 -108 161 -105 163 3 3 40 -11 239 -95 94 -40 200 -58 267 -45 138 26
223 147 205 295 -21 181 -195 455 -333 526 -56 28 -122 28 -158 -1z"/>
<path d="M4094 5300 c-178 -26 -279 -121 -260 -245 8 -47 50 -115 71 -115 9 0
44 14 78 32 54 28 74 32 159 36 85 4 101 2 136 -18 71 -40 91 -113 53 -189
-32 -62 -95 -129 -291 -306 -193 -176 -233 -221 -251 -289 -24 -87 8 -209 67
-255 26 -20 36 -21 399 -21 371 0 372 0 406 23 61 41 76 158 29 235 l-20 32
-241 0 c-132 0 -239 4 -237 8 2 5 66 63 143 129 237 205 304 285 345 412 54
170 -3 349 -143 445 -113 78 -279 110 -443 86z"/>
<path d="M5350 5303 c-168 -28 -311 -128 -382 -267 -132 -259 -124 -663 17
-896 124 -204 372 -292 610 -216 175 56 294 193 357 411 20 71 23 101 23 270
0 217 -9 263 -77 405 -73 151 -199 250 -363 285 -67 14 -132 17 -185 8z m127
-294 c104 -39 153 -168 153 -409 0 -158 -18 -255 -57 -319 -40 -63 -72 -84
-140 -89 -49 -3 -64 0 -93 20 -44 30 -86 111 -105 203 -29 137 -14 373 30 478
41 99 129 148 212 116z"/>
<path d="M1455 4039 c-227 -170 -243 -184 -256 -228 -10 -33 -8 -49 10 -107
23 -72 100 -197 137 -221 18 -12 24 -11 46 7 43 33 43 73 3 146 l-36 64 156
116 c100 74 160 125 166 142 7 18 7 41 -1 72 -15 58 -46 130 -57 129 -4 0 -80
-54 -168 -120z"/>
<path d="M8101 4362 c-48 -24 -93 -94 -127 -198 -25 -76 -29 -105 -29 -194 1
-121 20 -176 82 -231 36 -31 67 -35 129 -14 18 6 22 0 38 -56 20 -73 85 -149
128 -149 45 0 91 41 128 116 44 88 60 154 60 253 0 103 -21 171 -70 222 -36
38 -42 40 -85 38 -52 -3 -58 2 -69 66 -10 55 -51 122 -89 146 -39 23 -53 24
-96 1z m81 -263 c10 -19 18 -55 18 -81 0 -60 -26 -91 -73 -86 -67 6 -89 137
-32 194 31 31 63 21 87 -27z m194 -190 c13 -15 19 -35 18 -70 -1 -81 -52 -116
-93 -63 -23 29 -29 101 -11 135 14 26 62 25 86 -2z"/>
<path d="M4163 2623 c-36 -5 -41 -18 -46 -123 l-2 -55 -45 -3 c-66 -3 -88 -10
-110 -32 -24 -24 -27 -88 -5 -130 15 -29 18 -30 90 -30 l74 0 3 -214 c3 -198
5 -217 24 -243 35 -49 88 -68 184 -68 149 0 131 -11 371 241 117 125 222 240
231 258 10 17 17 54 18 83 0 47 -4 57 -36 93 l-36 40 -218 0 c-120 0 -225 3
-234 6 -12 5 -16 21 -16 65 0 47 -5 63 -24 86 -23 26 -29 28 -108 29 -45 1
-97 0 -115 -3z m477 -380 c0 -10 -220 -267 -232 -271 -4 -2 -8 60 -8 137 l0
141 120 0 c66 0 120 -3 120 -7z"/>
<path d="M5165 2621 l-30 -6 -3 -390 c-2 -355 -1 -393 15 -425 23 -46 90 -80
156 -80 57 0 274 60 321 90 65 39 73 129 17 170 -36 25 -49 25 -134 1 l-68
-19 -10 25 c-5 13 -9 149 -9 302 l0 278 -25 25 c-14 14 -39 28 -56 32 -38 7
-133 6 -174 -3z"/>
<path d="M2633 2360 c-13 -5 -23 -14 -23 -20 0 -16 360 -423 392 -443 33 -20
112 -27 128 -11 8 8 -33 61 -142 184 -235 267 -269 300 -304 299 -16 0 -39 -4
-51 -9z"/>
<path d="M7278 2537 c-20 -12 -76 -65 -125 -117 -48 -52 -109 -117 -135 -143
l-47 -48 -37 16 c-24 10 -49 13 -68 9 -32 -7 -166 -135 -166 -160 0 -8 18 -21
40 -30 22 -9 40 -21 40 -26 0 -5 -16 -28 -35 -51 -55 -64 -45 -97 29 -97 25 0
42 11 81 50 27 28 54 50 61 50 6 0 62 -20 125 -45 123 -49 163 -54 211 -29 40
21 132 106 169 158 l29 39 0 204 c0 190 -1 204 -20 223 -28 28 -103 27 -152
-3z m-21 -327 c5 -82 4 -100 -8 -99 -23 0 -153 56 -156 66 -2 5 29 44 69 86
57 62 73 75 80 63 5 -9 12 -61 15 -116z"/>
</g>
</svg>
