<?xml version="1.0" standalone="no"?>
<!DOCTYPE svg PUBLIC "-//W3C//DTD SVG 20010904//EN"
 "http://www.w3.org/TR/2001/REC-SVG-20010904/DTD/svg10.dtd">
<svg version="1.0" xmlns="http://www.w3.org/2000/svg"
 width="825.000000pt" height="272.000000pt" viewBox="0 0 825.000000 272.000000"
 preserveAspectRatio="xMidYMid meet">

<g transform="translate(0.000000,272.000000) scale(0.100000,-0.100000)"
fill="#fff" stroke="none">
<path d="M5169 2544 l-21 -23 3 -997 4 -996 32 -27 c47 -39 236 -150 274 -161
19 -6 61 -10 94 -10 33 0 135 -5 226 -11 91 -7 178 -9 192 -5 26 6 27 9 27 79
0 69 -2 75 -32 104 -27 25 -177 143 -257 203 -20 15 -20 28 -27 812 l-7 796
-126 125 -126 125 -118 4 c-111 4 -118 3 -138 -18z m222 -834 c3 -432 7 -847
8 -922 l1 -138 58 0 c33 0 100 -3 150 -6 l92 -7 0 -60 0 -60 -232 7 c-128 4
-235 9 -238 12 -3 3 -6 446 -8 985 l-3 980 83 -3 83 -3 6 -785z"/>
<path d="M41 2534 c-21 -27 -21 -29 -21 -1128 0 -854 3 -1106 13 -1125 6 -13
70 -66 142 -118 146 -106 126 -101 289 -73 89 16 106 33 106 105 0 39 4 55 13
55 8 0 52 -25 98 -56 l84 -57 70 6 c39 4 117 13 175 21 85 11 108 18 122 36
17 21 18 59 18 564 0 299 -3 767 -7 1042 l-6 499 -131 127 -131 127 -117 1
c-108 0 -119 -2 -138 -22 -15 -17 -20 -35 -20 -80 0 -32 -3 -58 -6 -58 -4 0
-46 36 -94 80 l-88 80 -175 0 -176 0 -20 -26z m343 -51 c3 -10 41 -232 86
-493 118 -695 191 -1104 196 -1109 2 -2 4 361 4 808 l0 812 88 -3 87 -3 3
-1052 2 -1051 -77 -7 c-43 -4 -109 -10 -146 -14 -47 -5 -70 -4 -72 3 -9 29
-181 999 -262 1481 l-18 110 -5 -815 -5 -815 -45 -7 c-25 -3 -64 -7 -87 -7
l-43 -1 0 1083 c0 596 3 1087 7 1090 3 4 68 7 144 7 122 0 138 -2 143 -17z"/>
<path d="M1547 2542 c-16 -17 -17 -105 -17 -1061 l0 -1042 23 -22 c12 -12 75
-53 140 -91 l118 -68 267 23 c311 27 302 23 302 122 0 48 -4 68 -17 80 -34 29
-244 177 -253 177 -5 0 -16 7 -24 16 -13 13 -16 45 -16 195 l0 179 128 0 c121
0 130 1 150 23 19 21 22 35 22 119 l0 95 -131 114 c-71 63 -139 117 -150 121
-19 7 -19 17 -17 265 l3 258 132 5 c89 3 136 9 145 18 14 14 24 165 14 205 -3
12 -63 82 -133 155 l-129 132 -270 0 c-250 0 -272 -1 -287 -18z m521 -129 l3
-83 -151 0 -150 0 0 -435 0 -435 150 0 151 0 -3 -77 -3 -78 -147 -3 -148 -3 0
-337 c0 -185 4 -342 8 -348 5 -8 48 -9 142 -5 74 4 141 5 148 3 9 -3 12 -22
10 -66 l-3 -61 -233 -14 c-127 -8 -234 -12 -237 -10 -7 8 -19 2004 -12 2023 6
15 30 16 239 14 l233 -3 3 -82z"/>
<path d="M2656 2544 c-13 -12 -16 -40 -16 -134 l0 -119 88 -73 c48 -41 103
-86 123 -101 l36 -27 5 -791 4 -791 23 -17 c12 -9 78 -45 146 -80 l124 -64
103 5 c57 2 112 9 123 15 18 10 19 28 14 529 -2 286 -4 663 -4 839 l0 320 108
5 c93 4 111 8 123 24 18 26 19 201 1 234 -7 12 -65 72 -130 132 l-117 110
-369 0 c-323 0 -372 -2 -385 -16z m722 -131 l3 -83 -126 0 -126 0 2 -897 1
-898 -83 0 -84 0 -6 585 c-3 322 -7 726 -8 898 l-1 312 -125 0 -125 0 0 78 c0
43 3 82 7 85 4 4 155 6 337 5 l331 -3 3 -82z"/>
<path d="M3989 2539 l-21 -21 4 -986 4 -985 36 -31 c20 -17 86 -57 146 -89
l110 -57 114 0 c62 0 119 4 127 9 11 7 13 55 10 257 -2 137 -3 290 -4 339 l0
90 134 5 c130 5 135 6 153 31 17 23 19 36 12 112 l-7 87 -123 107 c-69 60
-135 112 -149 117 l-25 10 2 255 3 256 130 3 c164 3 165 3 165 136 0 69 -4 98
-17 116 -9 14 -69 78 -132 143 l-115 117 -268 0 c-260 0 -269 -1 -289 -21z
m521 -124 l0 -84 -147 -3 -148 -3 0 -425 0 -425 148 -3 147 -3 0 -74 0 -75
-145 0 -145 0 0 -385 0 -385 -83 0 -84 0 -6 112 c-4 62 -7 501 -7 976 l0 862
235 0 235 0 0 -85z"/>
<path d="M6369 2539 l-22 -22 5 -1021 c3 -586 9 -1029 14 -1038 11 -19 246
-195 277 -208 12 -5 66 -14 120 -20 150 -16 141 -29 134 208 -4 107 -7 569 -7
1026 l0 830 -133 133 -133 133 -117 0 c-106 0 -119 -2 -138 -21z m225 -1055
c4 -559 5 -1018 4 -1019 -2 -1 -40 0 -84 2 l-81 5 -7 61 c-3 33 -6 489 -6
1013 l0 954 83 0 84 0 7 -1016z"/>
<path d="M7295 2552 c-5 -4 -16 -17 -23 -30 -14 -24 -11 -50 42 -387 13 -82
41 -258 62 -389 l37 -239 -22 -166 c-23 -174 -53 -401 -96 -709 -34 -250 -34
-251 16 -291 22 -18 75 -66 118 -106 43 -40 89 -80 102 -88 13 -9 71 -23 128
-31 125 -19 141 -12 141 61 0 27 4 43 12 43 7 0 47 -34 89 -76 l77 -77 109
-18 c133 -23 120 -23 137 4 15 23 8 100 -54 532 -17 122 -61 444 -76 560 -19
148 -26 88 86 768 42 253 58 373 51 385 -5 9 -65 72 -134 140 l-124 122 -120
0 c-138 0 -147 -5 -162 -84 -5 -26 -12 -50 -16 -54 -3 -4 -38 26 -75 66 l-69
72 -113 0 c-62 0 -117 -4 -123 -8z m204 -74 c4 -13 34 -176 66 -363 31 -187
61 -344 66 -349 6 -6 9 -5 9 3 0 33 122 717 129 724 4 4 43 7 87 5 l79 -3 -3
-30 c-2 -16 -37 -241 -77 -500 l-74 -470 79 -575 c43 -316 77 -576 76 -578 -7
-7 -148 12 -160 22 -10 7 -30 127 -65 376 -29 201 -57 401 -63 445 -6 44 -13
76 -14 70 -2 -5 -31 -197 -64 -425 -33 -228 -63 -421 -65 -428 -5 -13 -56 -16
-129 -6 -47 7 -48 8 -42 38 3 17 37 263 76 546 l71 515 -21 135 c-70 442 -130
834 -130 851 0 17 8 19 80 19 74 0 81 -2 89 -22z"/>
</g>
</svg>
