<?xml version="1.0" standalone="no"?>
<!DOCTYPE svg PUBLIC "-//W3C//DTD SVG 20010904//EN"
 "http://www.w3.org/TR/2001/REC-SVG-20010904/DTD/svg10.dtd">
<svg version="1.0" xmlns="http://www.w3.org/2000/svg"
 width="477.000000pt" height="451.000000pt" viewBox="0 0 477.000000 451.000000"
 preserveAspectRatio="xMidYMid meet">

<g transform="translate(0.000000,451.000000) scale(0.100000,-0.100000)"
fill="#fff" stroke="none">
<path d="M1542 4395 c-35 -8 -103 -33 -150 -56 -73 -35 -102 -57 -178 -133
-105 -106 -150 -186 -184 -326 -19 -81 -20 -116 -20 -821 l0 -736 24 -97 c35
-138 74 -205 181 -312 97 -99 170 -143 299 -183 64 -20 90 -21 432 -21 l364 0
0 1350 0 1350 -352 -1 c-260 0 -370 -4 -416 -14z m553 -287 c3 -46 5 -553 3
-1128 l-3 -1045 -256 0 -255 0 -80 39 c-130 64 -218 170 -256 305 -17 61 -18
118 -18 773 0 477 4 724 11 760 36 174 194 335 361 367 24 5 143 9 265 10
l221 1 7 -82z"/>
<path d="M1640 3851 c-94 -21 -159 -75 -190 -157 -48 -131 2 -259 126 -320 66
-32 145 -36 212 -9 54 22 128 104 143 158 14 50 6 155 -15 195 -49 96 -174
155 -276 133z"/>
<path d="M2592 3063 l3 -1348 290 0 c279 0 293 1 360 24 230 78 397 257 455
489 19 73 20 117 20 831 0 806 1 788 -51 929 -49 135 -193 285 -341 356 -122
58 -178 66 -487 66 l-251 0 2 -1347z m605 122 c147 -44 233 -199 188 -337 -84
-259 -445 -252 -521 9 -20 69 -13 118 27 192 34 66 85 109 154 133 62 21 88
22 152 3z"/>
<path d="M4098 1280 c-55 -30 -81 -73 -86 -142 -3 -33 1 -71 8 -88 19 -45 84
-100 123 -102 145 -8 208 40 215 163 5 78 -10 114 -64 156 -49 37 -141 43
-196 13z m147 -80 c72 -44 54 -141 -33 -177 -33 -13 -36 -13 -74 13 -67 47
-74 110 -16 159 36 30 79 32 123 5z"/>
<path d="M370 1125 c0 -144 2 -166 16 -172 38 -14 49 10 49 105 1 50 3 94 6
96 3 3 37 -35 75 -86 88 -116 90 -118 125 -118 l29 0 0 171 0 170 -32 -3 -33
-3 -3 -92 c-1 -51 -7 -93 -12 -93 -5 0 -30 30 -56 68 -73 103 -93 122 -131
122 l-33 0 0 -165z"/>
<path d="M927 1277 c-3 -7 -6 -79 -6 -159 -2 -156 3 -173 51 -166 23 3 23 3
23 168 l0 165 -31 3 c-20 2 -33 -2 -37 -11z"/>
<path d="M1262 1123 l3 -168 25 0 c25 0 25 2 30 94 3 52 10 96 15 97 6 2 39
-36 75 -84 68 -89 105 -120 133 -109 15 6 17 27 17 172 l0 166 -32 -3 -33 -3
-3 -92 c-1 -51 -7 -93 -11 -93 -5 0 -25 21 -44 48 -111 148 -105 142 -142 142
l-35 0 2 -167z"/>
<path d="M1807 1283 c-4 -3 -7 -19 -7 -34 0 -31 15 -39 71 -39 l38 0 3 -127
c3 -125 4 -128 26 -131 45 -7 52 11 52 139 l0 118 48 3 c47 3 47 3 50 41 l3
37 -139 0 c-76 0 -142 -3 -145 -7z"/>
<path d="M2336 1259 c-3 -17 -6 -89 -6 -159 0 -97 3 -130 14 -139 9 -8 54 -11
132 -9 l119 3 3 31 3 32 -93 -2 -93 -1 -3 43 -3 42 85 0 c47 0 87 4 90 8 3 5
3 18 -1 30 -5 19 -13 22 -87 24 l-81 3 0 30 0 30 95 5 c52 3 94 8 93 13 -2 4
-3 16 -3 27 0 19 -7 20 -129 20 l-128 0 -7 -31z"/>
<path d="M2884 1277 c-2 -7 -3 -82 -2 -167 l3 -155 33 -3 32 -3 0 88 c0 48 4
94 9 101 5 9 29 -15 79 -82 69 -92 104 -118 131 -101 7 4 11 66 11 171 l0 164
-30 0 -30 0 0 -95 c0 -70 -3 -95 -12 -95 -7 0 -44 43 -83 95 -63 87 -72 95
-102 95 -19 0 -36 -6 -39 -13z"/>
<path d="M3472 1123 l3 -168 96 1 c109 0 147 16 187 75 20 29 23 44 20 101 -3
58 -8 72 -33 99 -44 47 -82 59 -185 59 l-90 0 2 -167z m222 48 c39 -68 -10
-143 -96 -145 l-43 -1 -3 93 -3 93 63 -3 c59 -3 63 -5 82 -37z"/>
<path d="M3243 786 c-228 -72 -311 -369 -152 -550 47 -54 141 -102 216 -111
56 -7 150 8 198 33 44 22 125 92 125 107 0 7 -23 32 -51 54 l-51 41 -31 -32
c-58 -58 -148 -75 -224 -43 -52 22 -72 42 -99 100 -28 60 -30 97 -5 150 56
124 226 159 316 65 16 -16 35 -30 42 -30 18 0 103 71 103 86 0 14 -77 86 -111
104 -70 38 -198 50 -276 26z"/>
<path d="M541 780 c-66 -14 -128 -48 -161 -88 -25 -31 -30 -45 -30 -90 0 -29
7 -67 16 -83 22 -43 115 -83 253 -110 124 -24 171 -47 171 -81 0 -28 -8 -39
-40 -61 -39 -27 -196 -23 -282 7 -64 23 -88 21 -88 -6 0 -5 -10 -22 -21 -37
-12 -16 -19 -34 -15 -39 3 -6 37 -21 74 -34 58 -20 86 -23 208 -23 136 0 142
1 199 30 67 34 92 68 101 138 17 124 -67 191 -288 230 -112 20 -142 34 -146
69 -3 22 3 32 30 48 41 25 158 27 232 5 27 -8 57 -15 66 -15 20 0 55 71 47 94
-14 36 -229 66 -326 46z"/>
<path d="M1005 768 c2 -7 33 -119 69 -248 36 -129 75 -266 86 -305 11 -38 20
-71 20 -72 0 -2 35 -3 79 -3 l78 0 37 128 c21 70 47 158 58 196 13 47 23 65
28 55 4 -7 29 -86 54 -174 65 -225 52 -205 140 -205 l74 0 16 48 c14 45 74
256 131 462 14 52 28 103 31 113 5 15 -3 17 -65 17 l-70 0 -20 -67 c-10 -38
-35 -128 -55 -202 -19 -74 -38 -137 -42 -140 -13 -14 -33 37 -84 218 l-55 191
-60 0 -60 0 -43 -153 c-67 -235 -75 -257 -88 -257 -12 0 -28 52 -86 283 l-33
127 -72 0 c-54 0 -71 -3 -68 -12z"/>
<path d="M2070 460 l0 -320 70 0 70 0 0 320 0 320 -70 0 -70 0 0 -320z"/>
<path d="M2360 716 c0 -43 4 -65 13 -69 7 -3 46 -5 85 -5 40 -1 81 -1 92 -1
19 -1 20 -8 20 -251 l0 -250 70 0 70 0 0 250 0 250 84 0 c116 0 116 0 116 76
l0 64 -275 0 -275 0 0 -64z"/>
<path d="M3780 460 l0 -320 65 0 64 0 3 128 3 127 134 3 c74 1 138 -1 143 -6
11 -11 17 -66 17 -169 l1 -83 65 0 65 0 0 320 0 320 -65 0 -64 0 -3 -122 -3
-123 -145 0 -145 0 -3 123 -3 122 -64 0 -65 0 0 -320z"/>
<path d="M4411 221 c-9 -6 -10 -11 -2 -15 6 -4 11 -18 11 -32 0 -33 18 -31 22
4 4 33 22 36 26 4 4 -26 39 -44 71 -35 16 4 21 13 21 39 0 35 -8 42 -27 23 -9
-9 -16 -8 -28 5 -18 17 -71 21 -94 7z"/>
</g>
</svg>
