<?xml version="1.0" encoding="UTF-8"?>
<!DOCTYPE svg PUBLIC "-//W3C//DTD SVG 1.1//EN" "http://www.w3.org/Graphics/SVG/1.1/DTD/svg11.dtd">
<svg xmlns="http://www.w3.org/2000/svg" version="1.1" width="1920px" height="1080px" style="shape-rendering:geometricPrecision; text-rendering:geometricPrecision; image-rendering:optimizeQuality; fill-rule:evenodd; clip-rule:evenodd" xmlns:xlink="http://www.w3.org/1999/xlink">
<g><path style="opacity:0.965" fill="#fff" d="M 1091.5,214.5 C 1101.4,213.527 1108.24,217.527 1112,226.5C 1113.19,232.778 1113.69,239.112 1113.5,245.5C 1141.5,245.5 1169.5,245.5 1197.5,245.5C 1197.5,238.167 1197.5,230.833 1197.5,223.5C 1221.17,223.5 1244.83,223.5 1268.5,223.5C 1269.04,236.939 1268.21,250.272 1266,263.5C 1264.96,266.405 1263.8,269.239 1262.5,272C 1266.67,280.167 1272.83,286.333 1281,290.5C 1281.67,300.167 1281.67,309.833 1281,319.5C 1266.61,315.488 1255.61,307.155 1248,294.5C 1233.19,311.64 1214.35,318.973 1191.5,316.5C 1191.5,307.5 1191.5,298.5 1191.5,289.5C 1202.67,290.833 1212.33,287.667 1220.5,280C 1230.13,272.395 1236.46,262.728 1239.5,251C 1225.5,250.5 1211.5,250.333 1197.5,250.5C 1197.5,259.167 1197.5,267.833 1197.5,276.5C 1167.5,276.5 1137.5,276.5 1107.5,276.5C 1107.5,271.5 1107.5,266.5 1107.5,261.5C 1090.17,261.5 1072.83,261.5 1055.5,261.5C 1055.19,270.887 1055.53,280.22 1056.5,289.5C 1075.15,290.5 1093.82,290.833 1112.5,290.5C 1112.5,299.167 1112.5,307.833 1112.5,316.5C 1089.5,316.667 1066.5,316.5 1043.5,316C 1035.32,313.664 1029.82,308.497 1027,300.5C 1026.67,288.167 1026.33,275.833 1026,263.5C 1019.89,290.826 1003.06,307.326 975.5,313C 963.603,315.163 951.603,315.996 939.5,315.5C 939.5,306.5 939.5,297.5 939.5,288.5C 955.935,289.515 971.269,286.015 985.5,278C 991.701,272.8 995.867,266.3 998,258.5C 1000.26,248.564 1000.76,238.564 999.5,228.5C 1008.5,228.5 1017.5,228.5 1026.5,228.5C 1026.5,224.833 1026.5,221.167 1026.5,217.5C 1036.17,217.5 1045.83,217.5 1055.5,217.5C 1055.5,222.5 1055.5,227.5 1055.5,232.5C 1063.17,232.5 1070.83,232.5 1078.5,232.5C 1078.45,223.249 1082.78,217.249 1091.5,214.5 Z M 1094.5,223.5 C 1102.2,224.914 1104.7,229.247 1102,236.5C 1095.03,242.447 1090.2,240.947 1087.5,232C 1088.26,227.754 1090.59,224.921 1094.5,223.5 Z"/></g>
<g><path style="opacity:0.97" fill="#fff" d="M 850.5,217.5 C 897.5,217.5 944.5,217.5 991.5,217.5C 991.5,226.5 991.5,235.5 991.5,244.5C 973.5,244.5 955.5,244.5 937.5,244.5C 938.132,267.126 930.465,286.292 914.5,302C 896.363,314.035 876.363,319.201 854.5,317.5C 854.5,308.167 854.5,298.833 854.5,289.5C 868.183,290.334 881.183,287.834 893.5,282C 904.339,272.337 909.673,260.171 909.5,245.5C 899.167,245.5 888.833,245.5 878.5,245.5C 878.5,252.167 878.5,258.833 878.5,265.5C 869.167,265.5 859.833,265.5 850.5,265.5C 850.5,249.5 850.5,233.5 850.5,217.5 Z"/></g>
<g><path style="opacity:0.975" fill="#fff" d="M 1309.5,249.5 C 1483.83,249.333 1658.17,249.5 1832.5,250C 1847.83,256.459 1852,267.292 1845,282.5C 1841.91,286.928 1837.74,289.761 1832.5,291C 1658.17,291.667 1483.83,291.667 1309.5,291C 1294.2,284.545 1290.03,273.711 1297,258.5C 1300.3,254.118 1304.47,251.118 1309.5,249.5 Z"/></g>
<g><path style="opacity:0.982" fill="#fff" d="M 154.5,250.5 C 378.167,250.333 601.834,250.5 825.5,251C 834.604,254.276 839.271,260.776 839.5,270.5C 839.296,278.744 835.629,284.911 828.5,289C 756.89,290.324 685.224,290.991 613.5,291C 624.787,298.75 629.787,309.583 628.5,323.5C 638.167,323.5 647.833,323.5 657.5,323.5C 656.944,346.434 659.11,369.101 664,391.5C 666.228,368.772 665.728,346.105 662.5,323.5C 749.833,323.5 837.167,323.5 924.5,323.5C 924.5,352.833 924.5,382.167 924.5,411.5C 920.116,411.826 915.783,411.492 911.5,410.5C 906.887,394.056 896.221,383.889 879.5,380C 856.089,375.301 837.922,382.801 825,402.5C 823.046,406.981 821.713,411.648 821,416.5C 820.031,448.827 819.531,481.16 819.5,513.5C 843.963,511.778 862.629,500.611 875.5,480C 879.188,480.167 882.855,480.834 886.5,482C 888.187,511.747 888.854,541.58 888.5,571.5C 884.55,572.112 880.717,573.112 877,574.5C 869.781,561.615 859.615,551.781 846.5,545C 838.038,541.731 829.371,540.898 820.5,542.5C 820.4,575.173 820.233,607.84 820,640.5C 821.946,658.112 831.113,670.279 847.5,677C 872.625,686.445 894.125,681.279 912,661.5C 915.422,656.322 919.089,651.322 923,646.5C 923.5,679.832 923.667,713.165 923.5,746.5C 891.165,746.333 858.832,746.5 826.5,747C 833.516,751.174 840.183,755.841 846.5,761C 895.5,761.667 944.5,761.667 993.5,761C 999.5,756.333 1005.5,751.667 1011.5,747C 989.167,746.667 966.833,746.333 944.5,746C 949.884,740.071 955.384,734.238 961,728.5C 962.711,726.044 964.044,723.377 965,720.5C 969.74,690.691 972.74,660.691 974,630.5C 976.459,563.189 977.125,495.856 976,428.5C 976.027,400.339 974.027,372.339 970,344.5C 968.829,340.987 967.662,337.487 966.5,334C 967.234,330.499 967.9,326.999 968.5,323.5C 1002.5,323.333 1036.5,323.5 1070.5,324C 1095.56,328.07 1113.39,341.57 1124,364.5C 1127.14,371.92 1129.47,379.586 1131,387.5C 1132.27,415.136 1132.94,442.803 1133,470.5C 1138.89,435.447 1159.06,413.78 1193.5,405.5C 1193.66,402.482 1193.5,399.482 1193,396.5C 1187.74,393.249 1183.08,389.249 1179,384.5C 1175.9,378.834 1173.4,373.001 1171.5,367C 1160.31,364.454 1149.31,361.454 1138.5,358C 1150.4,354.358 1162.4,351.025 1174.5,348C 1185.46,326.899 1202.13,320.566 1224.5,329C 1232.63,333.291 1237.97,339.791 1240.5,348.5C 1253.78,350.723 1266.95,353.39 1280,356.5C 1279.23,350.19 1277.23,344.19 1274,338.5C 1268.46,333.289 1262.62,328.456 1256.5,324C 1321.17,323.5 1385.83,323.333 1450.5,323.5C 1450.33,343.836 1450.5,364.169 1451,384.5C 1462.65,350.193 1486.48,330.36 1522.5,325C 1551.79,321.151 1577.79,328.485 1600.5,347C 1611.5,357.671 1618.66,370.505 1622,385.5C 1623.28,414.465 1623.95,443.465 1624,472.5C 1647.26,395.57 1697.43,345.736 1774.5,323C 1768.38,315.926 1762.38,308.759 1756.5,301.5C 1784.25,307.691 1811.92,315.025 1839.5,323.5C 1822.89,342.948 1805.72,361.948 1788,380.5C 1787.67,372.5 1787.33,364.5 1787,356.5C 1744.73,379.768 1713.07,413.101 1692,456.5C 1685.3,472.625 1680.47,489.292 1677.5,506.5C 1689.82,507.499 1702.15,507.832 1714.5,507.5C 1714.14,499.429 1714.64,491.429 1716,483.5C 1721.87,474.436 1729.7,472.269 1739.5,477C 1741.62,478.731 1743.12,480.898 1744,483.5C 1745.37,491.764 1745.87,500.097 1745.5,508.5C 1747.17,508.5 1748.83,508.5 1750.5,508.5C 1757.1,486.188 1772.1,475.688 1795.5,477C 1813.24,481.746 1823.74,493.246 1827,511.5C 1830.97,530.333 1827.64,547.667 1817,563.5C 1813.05,567.445 1808.55,570.611 1803.5,573C 1806.97,578.106 1810.81,582.94 1815,587.5C 1824.85,596.012 1834.01,605.179 1842.5,615C 1840.35,628.483 1832.68,636.817 1819.5,640C 1812.65,642.137 1805.65,643.303 1798.5,643.5C 1798.53,650.109 1795.53,654.776 1789.5,657.5C 1785.8,673.1 1780.8,688.267 1774.5,703C 1777.14,705.324 1780.14,707.157 1783.5,708.5C 1785.08,702.617 1786.08,696.617 1786.5,690.5C 1786.83,689.167 1787.17,687.833 1787.5,686.5C 1805.83,704.333 1824.17,722.167 1842.5,740C 1817.93,747.309 1793.27,754.309 1768.5,761C 1791.56,761.031 1814.56,761.697 1837.5,763C 1849.53,770.395 1851.53,779.895 1843.5,791.5C 1841.13,794.347 1838.13,796.18 1834.5,797C 1794.5,797.333 1754.5,797.667 1714.5,798C 1683.36,826.58 1647.36,846.913 1606.5,859C 1562.03,869.978 1520.36,863.311 1481.5,839C 1461.99,826.492 1443.32,812.826 1425.5,798C 1380.5,797.333 1335.5,797.333 1290.5,798C 1274.71,808.227 1258.05,816.894 1240.5,824C 1206.72,835.747 1174.72,832.08 1144.5,813C 1137.32,808.245 1130.32,803.245 1123.5,798C 1082.5,797.333 1041.5,797.333 1000.5,798C 982.997,810.251 963.997,819.584 943.5,826C 918.936,831.222 894.936,829.222 871.5,820C 856.617,814.226 842.617,806.893 829.5,798C 767.833,797.333 706.167,797.333 644.5,798C 628.047,808.561 610.714,817.561 592.5,825C 564.056,835.149 535.723,834.816 507.5,824C 490.286,817.396 474.286,808.729 459.5,798C 380.833,797.333 302.167,797.333 223.5,798C 214.969,806.197 206.802,814.697 199,823.5C 198.807,832.687 199.307,841.854 200.5,851C 200.167,852.5 199.833,854 199.5,855.5C 196.568,856.699 193.568,857.699 190.5,858.5C 188.259,857.929 186.592,856.596 185.5,854.5C 183.196,857.141 180.862,859.808 178.5,862.5C 175.73,855.09 173.73,847.423 172.5,839.5C 168.064,840.026 163.731,841.026 159.5,842.5C 158.505,836.872 158.171,831.206 158.5,825.5C 151.52,824.835 144.52,824.502 137.5,824.5C 137.357,822.738 137.691,821.071 138.5,819.5C 116.309,819.472 104.142,808.472 102,786.5C 74.8373,780.519 65.504,764.186 74,737.5C 84.0133,720.601 98.5133,715.101 117.5,721C 119.519,721.45 121.352,722.283 123,723.5C 137.385,708.57 151.885,693.737 166.5,679C 136.21,637.967 120.544,591.8 119.5,540.5C 110.453,538.488 101.453,536.321 92.5,534C 101.339,527.744 110.673,522.244 120.5,517.5C 126.129,473.244 142.462,433.578 169.5,398.5C 154.985,383.819 140.652,368.985 126.5,354C 121.874,354.753 117.208,355.753 112.5,357C 88.4081,358.745 75.0748,347.578 72.5,323.5C 73.7064,303.294 84.373,292.294 104.5,290.5C 106.714,266.204 120.047,255.37 144.5,258C 147.365,254.749 150.699,252.249 154.5,250.5 Z M 562.5,265.5 C 576.014,265.348 583.014,272.014 583.5,285.5C 583.264,289.585 582.597,293.585 581.5,297.5C 587.506,297.023 593.506,297.523 599.5,299C 611.102,302.6 616.269,310.434 615,322.5C 596.573,323.327 578.073,323.827 559.5,324C 563.982,327.441 567.149,331.608 569,336.5C 551.971,353.195 535.304,370.195 519,387.5C 511.985,380.652 505.152,373.652 498.5,366.5C 516.515,347.652 535.015,329.319 554,311.5C 554.667,310.5 554.667,309.5 554,308.5C 547.534,300.245 544.534,290.911 545,280.5C 547.988,272.101 553.821,267.101 562.5,265.5 Z M 132.5,270.5 C 151.374,270.862 158.874,280.195 155,298.5C 152.769,303.731 150.103,308.731 147,313.5C 146.333,314.5 146.333,315.5 147,316.5C 164.652,332.985 181.819,349.985 198.5,367.5C 191.177,373.99 184.344,380.99 178,388.5C 161.333,371.167 144.667,353.833 128,336.5C 119.738,342.479 110.571,344.979 100.5,344C 87.9468,338.349 83.4468,328.849 87,315.5C 89.7989,309.175 94.6322,305.341 101.5,304C 107.519,302.587 113.519,302.087 119.5,302.5C 115.776,292.484 117.109,283.318 123.5,275C 126.324,272.921 129.324,271.421 132.5,270.5 Z M 169.5,290.5 C 290.5,290.5 411.5,290.5 532.5,290.5C 533.002,296.838 535.002,302.671 538.5,308C 521.028,324.471 503.862,341.304 487,358.5C 432.466,318.121 371.633,303.954 304.5,316C 269.58,323.131 237.914,337.298 209.5,358.5C 193.985,343.152 178.319,327.985 162.5,313C 166.746,306.095 169.08,298.595 169.5,290.5 Z M 747.5,338.5 C 750.722,342.953 752.888,347.953 754,353.5C 757.23,369.006 759.23,384.673 760,400.5C 762.39,480.149 763.057,559.815 762,639.5C 761.533,656.569 760.2,673.569 758,690.5C 756.68,699.766 754.347,708.766 751,717.5C 749.566,721.382 747.4,724.715 744.5,727.5C 743.719,726.271 743.219,724.938 743,723.5C 735.648,622.232 734.648,520.899 740,419.5C 741.233,392.369 743.733,365.369 747.5,338.5 Z M 574.5,348.5 C 580.242,348.6 582.742,351.6 582,357.5C 585.146,412.135 586.313,466.802 585.5,521.5C 582.712,520.022 579.878,518.689 577,517.5C 571.874,472.773 555.374,432.94 527.5,398C 543.371,381.631 559.038,365.131 574.5,348.5 Z M 1277.5,357.5 C 1279.12,357.36 1280.29,358.027 1281,359.5C 1284.68,382.681 1286.68,406.014 1287,429.5C 1287.36,483.835 1287.86,538.168 1288.5,592.5C 1288.61,622.221 1287.44,651.888 1285,681.5C 1283.74,696.158 1280.07,710.158 1274,723.5C 1271.31,727.69 1267.81,731.024 1263.5,733.5C 1262.57,737.743 1262.9,741.909 1264.5,746C 1276.83,746.333 1289.17,746.667 1301.5,747C 1294,751.249 1286.67,755.749 1279.5,760.5C 1235.5,761.667 1191.5,761.833 1147.5,761C 1120.65,732.715 1088.15,722.548 1050,730.5C 1047.81,727.446 1046.14,724.112 1045,720.5C 1038.86,691.436 1036.86,662.103 1039,632.5C 1064.53,631.212 1088.03,623.712 1109.5,610C 1123.44,599.711 1130.94,585.877 1132,568.5C 1132.33,541.167 1132.67,513.833 1133,486.5C 1135.41,506.329 1143.91,522.996 1158.5,536.5C 1153.64,542.861 1148.97,549.361 1144.5,556C 1148.5,556.833 1152.5,557.667 1156.5,558.5C 1152.83,564.5 1149.17,570.5 1145.5,576.5C 1153.17,577.167 1160.83,577.833 1168.5,578.5C 1163.09,596.404 1158.09,614.404 1153.5,632.5C 1160.83,632.5 1168.17,632.5 1175.5,632.5C 1177.36,659.483 1179.03,686.483 1180.5,713.5C 1168.97,713.51 1158.64,717.01 1149.5,724C 1144.71,727.755 1142.21,732.588 1142,738.5C 1144.32,741.17 1147.32,742.504 1151,742.5C 1171.3,738.518 1190.3,731.185 1208,720.5C 1218.81,733.317 1232.47,740.984 1249,743.5C 1257.78,744.272 1260.45,740.606 1257,732.5C 1250.19,725.355 1242.53,719.355 1234,714.5C 1235.29,686.845 1236.79,659.178 1238.5,631.5C 1245.2,631.83 1251.87,631.497 1258.5,630.5C 1254.45,612.911 1250.78,595.244 1247.5,577.5C 1254.2,577.83 1260.87,577.497 1267.5,576.5C 1263.83,570.5 1260.17,564.5 1256.5,558.5C 1260.25,557.775 1263.92,556.775 1267.5,555.5C 1263.69,549.86 1259.69,544.36 1255.5,539C 1286.72,510.561 1292.89,477.394 1274,439.5C 1262.17,420.852 1245.34,409.519 1223.5,405.5C 1223.18,402.102 1223.51,398.768 1224.5,395.5C 1235.17,389.33 1241.5,380.163 1243.5,368C 1255.04,364.763 1266.37,361.263 1277.5,357.5 Z M 1386.5,378.5 C 1403.54,377.233 1418.04,382.566 1430,394.5C 1433.46,399.578 1435.96,405.078 1437.5,411C 1440.82,411.498 1444.15,411.665 1447.5,411.5C 1447.67,490.501 1447.5,569.501 1447,648.5C 1429.29,679.073 1403.79,688.239 1370.5,676C 1356.89,669.292 1348.73,658.459 1346,643.5C 1345.33,610.167 1345.33,576.833 1346,543.5C 1370.29,546.146 1389.29,557.48 1403,577.5C 1406.72,576.112 1410.55,575.112 1414.5,574.5C 1414.83,543.593 1414.5,512.76 1413.5,482C 1409.77,481.146 1406.11,480.479 1402.5,480C 1390.87,503.487 1371.87,514.654 1345.5,513.5C 1345.33,481.498 1345.5,449.498 1346,417.5C 1348.08,400.176 1357.25,388.343 1373.5,382C 1377.92,380.648 1382.25,379.481 1386.5,378.5 Z M 1038.5,379.5 C 1049.39,380.85 1058.89,385.184 1067,392.5C 1068,394.167 1069,395.833 1070,397.5C 1071.15,422.773 1071.65,448.106 1071.5,473.5C 1071.64,499.539 1071.14,525.539 1070,551.5C 1065.47,567.171 1054.97,574.504 1038.5,573.5C 1038.5,508.833 1038.5,444.167 1038.5,379.5 Z M 336.5,393.5 C 391.471,392.071 434.971,413.404 467,457.5C 469.866,461.557 471.866,465.89 473,470.5C 441.531,464.04 409.698,460.207 377.5,459C 325.872,456.702 274.539,459.535 223.5,467.5C 222.833,467.167 222.167,466.833 221.5,466.5C 247.623,423.063 285.956,398.73 336.5,393.5 Z M 1532.5,405.5 C 1539.21,404.274 1544.71,406.274 1549,411.5C 1550.28,427.818 1550.61,444.151 1550,460.5C 1549.57,466.229 1547.9,471.562 1545,476.5C 1540.26,480.454 1535.42,484.287 1530.5,488C 1560.51,488.167 1590.51,488.667 1620.5,489.5C 1618.73,496.722 1617.56,504.055 1617,511.5C 1616.05,529.23 1616.55,546.896 1618.5,564.5C 1591.17,564.5 1563.83,564.5 1536.5,564.5C 1538.1,569.701 1540.26,574.701 1543,579.5C 1548.78,600.794 1550.78,622.461 1549,644.5C 1544.38,655.705 1536.55,658.872 1525.5,654C 1520.34,648.198 1517.84,641.365 1518,633.5C 1517.33,565.833 1517.33,498.167 1518,430.5C 1517.76,418.955 1522.59,410.622 1532.5,405.5 Z M 1234.5,457.5 C 1248.75,469.481 1252.92,484.481 1247,502.5C 1244.23,509.044 1240.23,514.71 1235,519.5C 1234.5,498.836 1234.33,478.169 1234.5,457.5 Z M 1179.5,459.5 C 1180.66,478.662 1180.83,497.996 1180,517.5C 1163.59,498.297 1163.42,478.963 1179.5,459.5 Z M 317.5,490.5 C 388.688,487.985 458.688,495.818 527.5,514C 539.38,517.404 551.046,521.404 562.5,526C 543.886,532.57 524.886,537.737 505.5,541.5C 505.087,529.709 500.087,520.542 490.5,514C 477.219,507.676 463.219,504.009 448.5,503C 438.174,502.216 427.841,501.549 417.5,501C 380.5,500.333 343.5,500.333 306.5,501C 277.789,500.651 249.456,503.651 221.5,510C 211.033,512.639 202.533,518.139 196,526.5C 193.646,530.203 192.146,534.203 191.5,538.5C 170.669,535.973 150.003,532.473 129.5,528C 158.649,515.128 188.982,506.128 220.5,501C 252.786,495.639 285.119,492.139 317.5,490.5 Z M 356.5,512.5 C 386.539,512.749 416.539,513.916 446.5,516C 459.843,516.836 472.51,520.169 484.5,526C 486.709,527.873 488.542,530.04 490,532.5C 492.027,555.044 488.36,576.71 479,597.5C 453.787,654.786 409.787,683.786 347,684.5C 276.662,682.009 230.662,647.343 209,580.5C 204.511,566.383 203.511,552.05 206,537.5C 209.577,531.926 214.411,527.759 220.5,525C 240.695,518.891 261.362,515.558 282.5,515C 307.326,514.097 331.992,513.264 356.5,512.5 Z M 1781.5,514.5 C 1792.43,521.224 1793.09,528.891 1783.5,537.5C 1778.85,534.179 1774.51,530.513 1770.5,526.5C 1773.51,521.828 1777.18,517.828 1781.5,514.5 Z M 585.5,532.5 C 586.699,588.238 583.533,643.905 576,699.5C 575.283,707.368 573.783,715.035 571.5,722.5C 557.861,708.527 544.194,694.527 530.5,680.5C 562.321,637.604 578.321,589.271 578.5,535.5C 581.016,534.67 583.35,533.67 585.5,532.5 Z M 1763.5,540.5 C 1768.15,544.143 1772.81,547.81 1777.5,551.5C 1776.39,555.527 1774.72,559.193 1772.5,562.5C 1767.67,559.918 1763,557.085 1758.5,554C 1759.94,549.406 1761.61,544.906 1763.5,540.5 Z M 1676.5,544.5 C 1688.99,543.505 1701.66,543.171 1714.5,543.5C 1714.33,551.174 1714.5,558.841 1715,566.5C 1717.39,576.221 1723.56,580.388 1733.5,579C 1736.7,578.152 1739.53,576.652 1742,574.5C 1740.44,592.879 1742.44,610.879 1748,628.5C 1749.44,632.547 1751.27,636.38 1753.5,640C 1750.18,653.297 1745.68,666.13 1740,678.5C 1703.59,641.14 1682.43,596.473 1676.5,544.5 Z M 1745.5,544.5 C 1746.5,544.47 1747.16,544.97 1747.5,546C 1746.92,547.811 1746.42,549.645 1746,551.5C 1745.5,549.19 1745.34,546.857 1745.5,544.5 Z M 1756.5,568.5 C 1761.81,571.156 1766.81,574.323 1771.5,578C 1770.55,585.358 1770.21,592.525 1770.5,599.5C 1765.5,598.167 1760.5,596.833 1755.5,595.5C 1754.23,586.403 1754.57,577.403 1756.5,568.5 Z M 1782.5,568.5 C 1785.92,572.096 1789.25,575.929 1792.5,580C 1789.17,581.166 1785.84,582.332 1782.5,583.5C 1781.9,578.551 1781.9,573.551 1782.5,568.5 Z M 1623.5,590.5 C 1639.84,644.674 1672.17,686.507 1720.5,716C 1711.1,732.407 1699.77,747.407 1686.5,761C 1605.17,761.667 1523.83,761.667 1442.5,761C 1435.17,756.333 1427.83,751.667 1420.5,747C 1430.16,746.5 1439.83,746.334 1449.5,746.5C 1449.33,722.498 1449.5,698.498 1450,674.5C 1462.93,731.425 1498.09,754.592 1555.5,744C 1593.52,732.647 1616.02,707.48 1623,668.5C 1623.5,642.502 1623.67,616.502 1623.5,590.5 Z M 1796.5,592.5 C 1798.53,592.338 1800.53,592.505 1802.5,593C 1805.54,595.703 1808.2,598.703 1810.5,602C 1802.64,605.616 1794.64,608.616 1786.5,611C 1783.02,605.923 1781.69,600.423 1782.5,594.5C 1787.3,593.883 1791.97,593.216 1796.5,592.5 Z M 1756.5,609.5 C 1762.21,610.844 1767.87,612.344 1773.5,614C 1775,617.005 1776,620.171 1776.5,623.5C 1770.79,623.687 1765.12,623.354 1759.5,622.5C 1758.34,618.207 1757.34,613.874 1756.5,609.5 Z M 1821.5,609.5 C 1822.24,609.369 1822.91,609.536 1823.5,610C 1822.77,611.399 1822.27,612.899 1822,614.5C 1817.5,617.749 1812.84,620.749 1808,623.5C 1804.92,622.712 1801.76,622.212 1798.5,622C 1806.55,618.313 1814.22,614.147 1821.5,609.5 Z M 1767.5,637.5 C 1772.65,636.349 1777.98,636.183 1783.5,637C 1788.08,641.323 1787.42,644.489 1781.5,646.5C 1775.82,644.997 1771.15,641.997 1767.5,637.5 Z M 1763.5,652.5 C 1767.07,654.872 1770.91,656.872 1775,658.5C 1774.79,662.34 1773.79,666.007 1772,669.5C 1768.08,666.652 1764.58,663.485 1761.5,660C 1762.07,657.456 1762.74,654.956 1763.5,652.5 Z M 650.5,667.5 C 657.21,691.958 665.543,715.958 675.5,739.5C 659.353,745.241 644.02,752.574 629.5,761.5C 628.504,756.538 627.837,751.538 627.5,746.5C 636.5,746.5 645.5,746.5 654.5,746.5C 649.64,720.357 648.307,694.024 650.5,667.5 Z M 1756.5,674.5 C 1760.34,677.503 1764.34,680.336 1768.5,683C 1765.31,691.393 1761.65,699.56 1757.5,707.5C 1753.58,703.755 1750.25,699.588 1747.5,695C 1750.41,688.096 1753.41,681.263 1756.5,674.5 Z M 174.5,689.5 C 181.146,696.812 188.146,703.812 195.5,710.5C 178.845,726.988 162.012,743.321 145,759.5C 144.333,760.833 144.333,762.167 145,763.5C 152.019,771.538 155.019,780.872 154,791.5C 152.311,796.525 149.144,800.359 144.5,803C 136.905,806.433 129.572,806.1 122.5,802C 115.284,793.949 113.618,784.783 117.5,774.5C 108.412,774.488 99.7456,772.655 91.5,769C 80.9807,758.091 80.9807,747.091 91.5,736C 97.6311,731.553 104.298,730.553 111.5,733C 116.753,734.808 121.753,736.808 126.5,739C 142.34,722.327 158.34,705.827 174.5,689.5 Z M 398.5,689.5 C 400.599,692.856 402.599,696.356 404.5,700C 400.371,701.949 396.037,703.116 391.5,703.5C 391.232,700.26 390.566,697.094 389.5,694C 392.297,692.055 395.297,690.555 398.5,689.5 Z M 294.5,690.5 C 297.545,690.342 300.379,691.009 303,692.5C 302.602,695.708 301.769,698.875 300.5,702C 296.345,702.13 292.345,701.296 288.5,699.5C 290.758,696.643 292.758,693.643 294.5,690.5 Z M 520.5,691.5 C 534.081,703.578 547.247,716.244 560,729.5C 560.5,730.5 561,731.5 561.5,732.5C 560.383,733.949 559.716,735.616 559.5,737.5C 559.966,740.492 560.299,743.492 560.5,746.5C 577.837,746.333 595.17,746.5 612.5,747C 618.529,762.938 613.196,772.938 596.5,777C 591.5,777.333 586.5,777.667 581.5,778C 582.167,780.667 582.833,783.333 583.5,786C 574.145,790.072 564.312,792.239 554,792.5C 550.875,791.744 547.709,791.411 544.5,791.5C 545.159,782.514 548.325,774.514 554,767.5C 554.667,766.167 554.667,764.833 554,763.5C 536.167,746.333 518.333,729.167 500.5,712C 507.369,705.298 514.036,698.465 520.5,691.5 Z M 314.5,694.5 C 319.436,695.538 324.436,696.205 329.5,696.5C 329.5,700.167 329.5,703.833 329.5,707.5C 323.142,706.914 316.809,706.08 310.5,705C 311.935,701.527 313.268,698.027 314.5,694.5 Z M 377.5,694.5 C 378.117,694.611 378.617,694.944 379,695.5C 379.711,698.734 380.545,701.901 381.5,705C 375.735,706.946 369.735,707.78 363.5,707.5C 363.5,703.833 363.5,700.167 363.5,696.5C 368.391,696.468 373.057,695.801 377.5,694.5 Z M 340.5,697.5 C 344.833,697.5 349.167,697.5 353.5,697.5C 352.756,701.119 352.423,704.785 352.5,708.5C 348.167,708.5 343.833,708.5 339.5,708.5C 339.724,704.821 340.058,701.154 340.5,697.5 Z M 1740.5,708.5 C 1744.3,712.473 1747.97,716.64 1751.5,721C 1747.63,729.241 1743.13,737.075 1738,744.5C 1734.7,739.4 1731.53,734.234 1728.5,729C 1732.71,722.289 1736.71,715.456 1740.5,708.5 Z M 281.5,709.5 C 282.978,709.238 284.311,709.571 285.5,710.5C 287.269,714.644 288.936,718.81 290.5,723C 284.167,727.833 277.833,732.667 271.5,737.5C 269.15,732.951 267.484,728.117 266.5,723C 271.54,718.491 276.54,713.991 281.5,709.5 Z M 403.5,711.5 C 404.552,711.351 405.552,711.517 406.5,712C 407.833,712.667 407.833,713.333 406.5,714C 401.592,716.038 396.759,718.205 392,720.5C 390.5,719 389,717.5 387.5,716C 392.975,714.548 398.308,713.048 403.5,711.5 Z M 319.5,717.5 C 320.978,717.238 322.311,717.571 323.5,718.5C 322.287,723.702 320.62,728.702 318.5,733.5C 313.733,732.308 309.066,730.808 304.5,729C 309.685,725.303 314.685,721.47 319.5,717.5 Z M 369.5,717.5 C 374.251,721.748 378.917,726.248 383.5,731C 379.416,732.938 375.083,734.105 370.5,734.5C 369.977,729.408 368.977,724.408 367.5,719.5C 368.243,718.818 368.909,718.151 369.5,717.5 Z M 336.5,718.5 C 342.5,718.5 348.5,718.5 354.5,718.5C 355.501,724.504 356.501,730.504 357.5,736.5C 349.444,736.802 341.444,736.469 333.5,735.5C 333.167,735.167 332.833,734.833 332.5,734.5C 334.149,729.238 335.482,723.904 336.5,718.5 Z M 204.5,719.5 C 212.998,725.145 221.665,730.645 230.5,736C 221.53,743.969 212.863,752.303 204.5,761C 190.5,761.667 176.5,761.667 162.5,761C 177.006,747.661 191.006,733.827 204.5,719.5 Z M 489.5,720.5 C 490.239,720.369 490.906,720.536 491.5,721C 504.862,734.696 518.529,748.029 532.5,761C 514.833,761.667 497.167,761.667 479.5,761C 471.571,755.536 464.238,749.37 457.5,742.5C 468.928,736.132 479.595,728.798 489.5,720.5 Z M 416.5,723.5 C 422.608,728.434 428.608,733.601 434.5,739C 428.833,741.167 423.167,743.333 417.5,745.5C 411.718,741.221 406.385,736.388 401.5,731C 406.561,728.47 411.561,725.97 416.5,723.5 Z M 254.5,731.5 C 256.757,736.873 257.924,742.54 258,748.5C 252,753.833 246,759.167 240,764.5C 237.71,759.34 236.377,754.007 236,748.5C 242.363,742.967 248.529,737.301 254.5,731.5 Z M 1759.5,733.5 C 1764.71,735.602 1770.05,737.435 1775.5,739C 1770.91,746.169 1766.58,753.502 1762.5,761C 1756.47,761.83 1750.47,761.664 1744.5,760.5C 1749.96,751.721 1754.96,742.721 1759.5,733.5 Z M 291.5,738.5 C 325.012,751.544 359.012,752.877 393.5,742.5C 397.428,744.758 400.762,747.758 403.5,751.5C 369.52,789.522 332.854,792.356 293.5,760C 289.167,755.667 284.833,751.333 280.5,747C 284.235,744.147 287.902,741.313 291.5,738.5 Z M 743.5,739.5 C 744.5,739.5 745.5,739.5 746.5,739.5C 746.384,742.86 746.051,746.193 745.5,749.5C 742.5,749.5 739.5,749.5 736.5,749.5C 736.5,746.5 736.5,743.5 736.5,740.5C 739.059,740.802 741.393,740.468 743.5,739.5 Z M 759.5,740.5 C 764.937,740.363 770.27,741.03 775.5,742.5C 773.167,745.833 770.833,749.167 768.5,752.5C 765.243,751.449 761.91,750.782 758.5,750.5C 758.833,747.167 759.167,743.833 759.5,740.5 Z M 1062.5,740.5 C 1063.15,741.274 1063.48,742.274 1063.5,743.5C 1062.95,746.826 1062.45,750.16 1062,753.5C 1058.94,755.279 1055.78,756.946 1052.5,758.5C 1051.08,756.223 1050.41,753.723 1050.5,751C 1050.48,747.927 1051.15,745.093 1052.5,742.5C 1056.04,742.247 1059.37,741.581 1062.5,740.5 Z M 1076.5,740.5 C 1084.54,740.561 1092.2,742.227 1099.5,745.5C 1096.24,749.687 1092.74,753.687 1089,757.5C 1084.75,755.856 1080.42,754.522 1076,753.5C 1075.92,749.181 1076.09,744.848 1076.5,740.5 Z M 1719.5,740.5 C 1723.39,745.932 1727.06,751.598 1730.5,757.5C 1725.91,764.922 1720.75,771.922 1715,778.5C 1711.37,772.75 1707.87,766.916 1704.5,761C 1710.13,754.551 1715.13,747.718 1719.5,740.5 Z M 721.5,741.5 C 723.388,743.988 724.055,746.988 723.5,750.5C 718.862,750.472 714.362,751.139 710,752.5C 709.774,749.905 709.274,747.405 708.5,745C 712.897,743.628 717.231,742.462 721.5,741.5 Z M 788.5,745.5 C 793.227,745.909 797.56,747.409 801.5,750C 798.167,752.667 794.833,755.333 791.5,758C 788.351,758.274 785.351,757.608 782.5,756C 784.903,752.689 786.903,749.189 788.5,745.5 Z M 1342.5,745.5 C 1345.49,745.998 1348.49,746.498 1351.5,747C 1350.02,751.126 1348.35,755.126 1346.5,759C 1344.53,759.495 1342.53,759.662 1340.5,759.5C 1339.99,754.52 1340.65,749.854 1342.5,745.5 Z M 1364.5,746.5 C 1369.87,746.172 1375.21,746.505 1380.5,747.5C 1376.23,754.08 1370.23,756.08 1362.5,753.5C 1363.58,751.271 1364.24,748.937 1364.5,746.5 Z M 693.5,747.5 C 694.5,747.5 695.5,747.5 696.5,747.5C 696.777,750.448 696.444,753.281 695.5,756C 691.986,757.562 688.319,758.395 684.5,758.5C 684.337,756.143 684.503,753.81 685,751.5C 687.876,750.052 690.709,748.719 693.5,747.5 Z M 1035.5,748.5 C 1036.65,748.791 1037.32,749.624 1037.5,751C 1038.26,754.125 1038.59,757.291 1038.5,760.5C 1031.49,760.166 1024.49,759.666 1017.5,759C 1023.4,755.221 1029.4,751.721 1035.5,748.5 Z M 442.5,749.5 C 443.552,749.351 444.552,749.517 445.5,750C 450.167,754 454.833,758 459.5,762C 455,765.085 450.333,767.918 445.5,770.5C 439.686,765.854 434.02,761.021 428.5,756C 433.192,753.722 437.859,751.555 442.5,749.5 Z M 1325.5,749.5 C 1327.39,751.988 1328.05,754.988 1327.5,758.5C 1321.16,758.666 1314.82,758.5 1308.5,758C 1314.26,755.121 1319.93,752.287 1325.5,749.5 Z M 1396.5,749.5 C 1402.21,751.524 1407.55,754.357 1412.5,758C 1408.7,760.305 1405.03,762.805 1401.5,765.5C 1397.34,763.588 1393.34,761.421 1389.5,759C 1392.05,755.956 1394.38,752.789 1396.5,749.5 Z M 1111.5,751.5 C 1118.86,753.858 1125.19,757.858 1130.5,763.5C 1125.83,767.327 1121,770.994 1116,774.5C 1111.44,770.595 1106.94,766.761 1102.5,763C 1105.7,759.302 1108.7,755.469 1111.5,751.5 Z M 269.5,755.5 C 271.63,757.127 273.63,758.96 275.5,761C 271.5,761.667 267.5,761.667 263.5,761C 265.996,759.669 267.996,757.836 269.5,755.5 Z M 669.5,755.5 C 671.048,755.821 671.715,756.821 671.5,758.5C 669.143,758.663 666.81,758.497 664.5,758C 666.491,757.626 668.158,756.793 669.5,755.5 Z M 814.5,755.5 C 817.967,757.067 821.3,758.901 824.5,761C 820.167,763.833 815.833,766.667 811.5,769.5C 808.961,767.8 806.295,766.3 803.5,765C 807.359,761.968 811.026,758.802 814.5,755.5 Z M 223.5,760.5 C 224.966,761.347 225.8,762.68 226,764.5C 227.166,768.145 227.833,771.812 228,775.5C 222.684,779.982 217.517,784.648 212.5,789.5C 209.824,785.5 208.324,781.167 208,776.5C 213.37,771.298 218.536,765.965 223.5,760.5 Z M 1423.5,765.5 C 1428.28,767.392 1432.61,770.059 1436.5,773.5C 1433.81,777.021 1430.65,780.021 1427,782.5C 1422.5,779.333 1418,776.167 1413.5,773C 1417.3,771.021 1420.63,768.521 1423.5,765.5 Z M 834.5,769.5 C 839.936,773.09 845.27,776.923 850.5,781C 847.275,784.193 843.775,787.026 840,789.5C 834.411,785.622 828.911,781.622 823.5,777.5C 827.208,774.777 830.875,772.11 834.5,769.5 Z M 469.5,770.5 C 475.344,774.836 481.344,779.003 487.5,783C 483.5,785.667 479.5,788.333 475.5,791C 473.212,791.418 471.212,790.751 469.5,789C 465.279,786.063 461.279,782.896 457.5,779.5C 461.53,776.491 465.53,773.491 469.5,770.5 Z M 1693.5,772.5 C 1697.44,777.537 1700.78,783.037 1703.5,789C 1696.9,795.733 1689.73,801.9 1682,807.5C 1679.74,802.241 1677.58,796.907 1675.5,791.5C 1681.52,785.146 1687.52,778.813 1693.5,772.5 Z M 1139.5,773.5 C 1140.55,773.351 1141.55,773.517 1142.5,774C 1146.47,778.967 1150.8,783.634 1155.5,788C 1151.94,791.233 1148.1,794.067 1144,796.5C 1137.73,792.61 1131.9,788.11 1126.5,783C 1131.26,780.301 1135.59,777.134 1139.5,773.5 Z M 1447.5,781.5 C 1453.44,783.807 1458.77,787.14 1463.5,791.5C 1459.8,795.106 1455.63,798.106 1451,800.5C 1446.43,797.462 1441.93,794.295 1437.5,791C 1441.33,788.332 1444.67,785.165 1447.5,781.5 Z M 196.5,788.5 C 198.672,792.308 200.672,796.308 202.5,800.5C 198.849,804.652 195.016,808.652 191,812.5C 188.167,809.667 185.333,806.833 182.5,804C 187.004,798.664 191.671,793.497 196.5,788.5 Z M 862.5,788.5 C 871.318,793.572 880.651,797.572 890.5,800.5C 888.471,804.529 885.471,807.529 881.5,809.5C 871.661,806.247 862.327,801.914 853.5,796.5C 856.52,793.811 859.52,791.144 862.5,788.5 Z M 499.5,790.5 C 505.435,793.091 511.435,795.591 517.5,798C 514.167,801.333 510.833,804.667 507.5,808C 500.347,806.598 493.681,803.765 487.5,799.5C 491.568,796.479 495.568,793.479 499.5,790.5 Z M 1166.5,795.5 C 1173.08,799.066 1180.08,801.566 1187.5,803C 1185.17,806.667 1182.83,810.333 1180.5,814C 1171.89,812.371 1163.89,809.037 1156.5,804C 1160.02,801.302 1163.36,798.469 1166.5,795.5 Z M 165.5,797.5 C 170.814,797.239 171.314,797.906 167,799.5C 165.97,799.164 165.47,798.497 165.5,797.5 Z M 1500.5,798.5 C 1548,797.335 1595.66,797.168 1643.5,798C 1611.76,820.683 1577.09,827.016 1539.5,817C 1526.21,811.352 1513.21,805.185 1500.5,798.5 Z M 942.5,798.5 C 943.043,798.56 943.376,798.893 943.5,799.5C 942.888,803.82 942.222,808.153 941.5,812.5C 937.865,813.627 934.198,814.627 930.5,815.5C 929.507,810.88 929.173,806.214 929.5,801.5C 934.052,800.943 938.385,799.943 942.5,798.5 Z M 956.5,798.5 C 962.176,798.334 967.843,798.501 973.5,799C 968.112,802.361 962.446,805.194 956.5,807.5C 955.259,804.463 955.259,801.463 956.5,798.5 Z M 1232.5,798.5 C 1236.5,798.5 1240.5,798.5 1244.5,798.5C 1244.82,801.898 1244.49,805.232 1243.5,808.5C 1239.5,810.167 1235.5,811.833 1231.5,813.5C 1230.78,809.153 1230.11,804.82 1229.5,800.5C 1230.6,799.824 1231.6,799.158 1232.5,798.5 Z M 1257.5,798.5 C 1263.92,798.217 1264.09,799.217 1258,801.5C 1257.52,800.552 1257.35,799.552 1257.5,798.5 Z M 591.5,799.5 C 598.831,799.952 606.165,800.452 613.5,801C 606.955,804.44 600.288,807.606 593.5,810.5C 591.906,807.015 591.24,803.348 591.5,799.5 Z M 1475.5,799.5 C 1481.56,802.362 1487.56,805.529 1493.5,809C 1489.28,813.723 1484.61,817.89 1479.5,821.5C 1473.27,818.225 1467.6,814.225 1462.5,809.5C 1466.85,806.143 1471.19,802.809 1475.5,799.5 Z M 1641.5,831.5 C 1641.1,825.71 1641.6,820.044 1643,814.5C 1650.35,809.991 1657.35,804.991 1664,799.5C 1667.08,804.876 1668.58,810.543 1668.5,816.5C 1659.93,822.285 1650.93,827.285 1641.5,831.5 Z M 577.5,801.5 C 579.435,805.945 579.768,810.612 578.5,815.5C 570.993,817.896 563.327,819.063 555.5,819C 557.961,814.579 560.294,810.079 562.5,805.5C 567.647,804.265 572.647,802.931 577.5,801.5 Z M 531.5,802.5 C 536.911,803.069 542.245,804.069 547.5,805.5C 545.593,809.727 543.593,813.894 541.5,818C 534.264,818.071 527.264,816.738 520.5,814C 524.37,810.298 528.037,806.464 531.5,802.5 Z M 906.5,802.5 C 909.764,803.324 913.098,803.658 916.5,803.5C 916.5,807.833 916.5,812.167 916.5,816.5C 910.095,815.959 903.761,814.959 897.5,813.5C 900.902,810.105 903.902,806.438 906.5,802.5 Z M 1207.5,803.5 C 1210.83,803.5 1214.17,803.5 1217.5,803.5C 1217.67,807.846 1217.5,812.179 1217,816.5C 1209.56,818.692 1202.06,818.859 1194.5,817C 1196.96,813.25 1199.29,809.417 1201.5,805.5C 1203.63,804.831 1205.63,804.165 1207.5,803.5 Z M 170.5,811.5 C 175.465,815.963 180.298,820.63 185,825.5C 185.874,828.379 185.54,831.045 184,833.5C 183.439,829.905 182.272,826.572 180.5,823.5C 177.601,824.642 174.601,825.308 171.5,825.5C 171.5,821.5 171.5,817.5 171.5,813.5C 169.143,813.663 166.81,813.497 164.5,813C 166.708,812.809 168.708,812.309 170.5,811.5 Z M 1504.5,815.5 C 1510.35,818.592 1516.35,821.426 1522.5,824C 1518.67,829.167 1514.83,834.333 1511,839.5C 1504.22,836.198 1497.72,832.531 1491.5,828.5C 1496.06,824.388 1500.39,820.055 1504.5,815.5 Z M 1627.5,821.5 C 1628.71,827.09 1628.38,832.756 1626.5,838.5C 1617.7,842.1 1608.7,845.1 1599.5,847.5C 1599.17,847 1598.83,846.5 1598.5,846C 1600.15,840.899 1601.48,835.732 1602.5,830.5C 1611.41,828.864 1619.75,825.864 1627.5,821.5 Z M 1534.5,829.5 C 1540.86,831.008 1547.2,832.674 1553.5,834.5C 1550.07,839.716 1546.4,844.716 1542.5,849.5C 1536.25,848.108 1530.25,846.108 1524.5,843.5C 1527.84,838.804 1531.18,834.137 1534.5,829.5 Z M 1587.5,834.5 C 1586.64,839.611 1585.31,844.611 1583.5,849.5C 1575.27,851.661 1566.94,851.995 1558.5,850.5C 1561.64,845.529 1564.97,840.696 1568.5,836C 1574.79,834.893 1581.12,834.393 1587.5,834.5 Z"/></g>
<g><path style="opacity:0.98" fill="#fff" d="M 270.5,539.5 C 298.032,536.5 316.532,547.833 326,573.5C 331.173,599.009 322.34,617.842 299.5,630C 272.15,639.062 251.317,631.228 237,606.5C 228.534,584.242 233.034,565.075 250.5,549C 256.601,544.448 263.268,541.281 270.5,539.5 Z"/></g>
<g><path style="opacity:0.981" fill="#fff" d="M 403.5,539.5 C 431.529,536.415 450.029,548.082 459,574.5C 463.688,604.641 451.521,624.141 422.5,633C 394.242,636.135 375.742,624.301 367,597.5C 362.751,567.637 374.918,548.303 403.5,539.5 Z"/></g>
<g><path style="opacity:0.949" fill="#fff" d="M 343.5,625.5 C 357.359,625.025 365.026,631.692 366.5,645.5C 362.738,662.216 352.738,667.716 336.5,662C 327.211,654.655 325.045,645.488 330,634.5C 333.528,629.834 338.028,626.834 343.5,625.5 Z"/></g>
</svg>
