<?xml version="1.0" encoding="UTF-8"?>
<!DOCTYPE svg PUBLIC "-//W3C//DTD SVG 1.1//EN" "http://www.w3.org/Graphics/SVG/1.1/DTD/svg11.dtd">
<svg xmlns="http://www.w3.org/2000/svg" version="1.1" width="2048px" height="1000px" style="shape-rendering:geometricPrecision; text-rendering:geometricPrecision; image-rendering:optimizeQuality; fill-rule:evenodd; clip-rule:evenodd" xmlns:xlink="http://www.w3.org/1999/xlink">
<g><path style="opacity:0.948" fill="#fff" d="M 2047.5,332.5 C 2047.5,334.5 2047.5,336.5 2047.5,338.5C 2037.36,366.611 2027.53,394.944 2018,423.5C 1977.58,546.908 1936.92,670.241 1896,793.5C 1895.11,796 1893.95,798.333 1892.5,800.5C 1853.09,788.419 1813.76,776.253 1774.5,764C 1773.75,762.266 1773.25,760.433 1773,758.5C 1773.14,744.093 1772.31,729.926 1770.5,716C 1733.11,711.157 1695.78,705.991 1658.5,700.5C 1660.48,680.071 1662.65,659.738 1665,639.5C 1653.03,646.491 1640.2,651.324 1626.5,654C 1610.58,656.164 1594.58,656.998 1578.5,656.5C 1581.32,675.523 1584.32,694.523 1587.5,713.5C 1530.13,703.993 1472.79,694.159 1415.5,684C 1412.22,659.239 1409.05,634.405 1406,609.5C 1398.42,624.325 1390.59,638.992 1382.5,653.5C 1368.92,630.68 1356.09,607.347 1344,583.5C 1341.01,600.26 1338.18,617.093 1335.5,634C 1331.83,634.667 1328.17,634.667 1324.5,634C 1277.21,626.173 1229.87,618.673 1182.5,611.5C 1186.85,587.782 1190.52,564.115 1193.5,540.5C 1158.93,560.161 1121.6,572.161 1081.5,576.5C 1081.83,621.172 1081.5,665.838 1080.5,710.5C 987.711,665.44 895.044,619.773 802.5,573.5C 801.5,613.161 801.167,652.828 801.5,692.5C 756.145,699.038 710.812,705.704 665.5,712.5C 664.328,692.112 662.495,671.779 660,651.5C 613.502,694.974 559.002,709.14 496.5,694C 443.832,673.923 413.665,635.756 406,579.5C 405.667,569.833 405.333,560.167 405,550.5C 395.219,558.962 385.386,567.296 375.5,575.5C 392.076,638.228 408.743,700.895 425.5,763.5C 421.819,765.794 417.819,767.627 413.5,769C 371.784,782.127 330.117,795.461 288.5,809C 285.773,809.818 283.106,809.652 280.5,808.5C 229.801,693.438 178.301,578.771 126,464.5C 115.107,470.636 103.94,476.303 92.5,481.5C 91.5224,481.023 90.6891,480.357 90,479.5C 61.1127,430.739 32.4461,381.739 4,332.5C 2.48305,330.76 0.983048,329.094 -0.5,327.5C -0.5,325.833 -0.5,324.167 -0.5,322.5C 45.6415,290.604 95.3081,265.437 148.5,247C 190.894,233.397 234.394,225.897 279,224.5C 303.394,224.91 327.561,227.41 351.5,232C 395.691,243.677 431.858,267.511 460,303.5C 479.551,332.355 488.218,364.355 486,399.5C 485.584,406.591 484.917,413.591 484,420.5C 523.059,392.957 566.225,383.79 613.5,393C 620.886,395.406 628.22,397.906 635.5,400.5C 635.833,399 636.167,397.5 636.5,396C 635.237,385.535 634.404,375.035 634,364.5C 633.926,360.299 633.093,356.299 631.5,352.5C 621.012,355.663 610.345,357.997 599.5,359.5C 598.883,325.561 597.216,291.727 594.5,258C 594.833,257.667 595.167,257.333 595.5,257C 658.981,236.373 722.481,215.873 786,195.5C 786.572,219.851 786.572,244.185 786,268.5C 794,253.833 802,239.167 810,224.5C 814.943,213.616 820.11,202.95 825.5,192.5C 826.552,192.351 827.552,192.517 828.5,193C 868.271,228.725 908.271,264.225 948.5,299.5C 965.236,284.593 983.902,272.76 1004.5,264C 996.696,254.858 988.863,245.692 981,236.5C 980.405,235.101 980.572,233.768 981.5,232.5C 1026.83,181.334 1071.66,129.667 1116,77.5C 1118.3,75.2018 1120.8,73.2018 1123.5,71.5C 1124.44,71.6082 1125.28,71.9415 1126,72.5C 1151.3,111.302 1176.8,149.969 1202.5,188.5C 1169.19,207.311 1135.52,225.478 1101.5,243C 1099.28,244.268 1097.28,245.768 1095.5,247.5C 1151.83,252.402 1196.66,277.402 1230,322.5C 1234.64,292.127 1239.47,261.794 1244.5,231.5C 1288.83,231.5 1333.17,231.5 1377.5,231.5C 1378.26,224.53 1379.59,217.696 1381.5,211C 1423.5,210.333 1465.5,210.333 1507.5,211C 1517.57,270.418 1527.4,329.918 1537,389.5C 1575.2,362.865 1617.36,354.031 1663.5,363C 1674.33,365.531 1684.66,369.364 1694.5,374.5C 1696.16,369.208 1696.5,363.874 1695.5,358.5C 1686.67,355.666 1677.67,353.666 1668.5,352.5C 1667.53,316.849 1666.86,281.182 1666.5,245.5C 1670.85,245.765 1675.19,246.265 1679.5,247C 1738.84,260.167 1798.18,273.334 1857.5,286.5C 1861.84,308.192 1866.34,329.858 1871,351.5C 1875.94,332.175 1880.78,312.841 1885.5,293.5C 1939.63,306.075 1993.63,319.075 2047.5,332.5 Z M 1116.5,125.5 C 1122.65,133.097 1128.81,140.764 1135,148.5C 1142.04,158.758 1149.21,168.924 1156.5,179C 1118.74,197.713 1081.07,216.713 1043.5,236C 1042.17,236.667 1040.83,236.667 1039.5,236C 1037.38,232.918 1035.38,229.751 1033.5,226.5C 1034,225.5 1034.5,224.5 1035,223.5C 1062.35,191.233 1089.52,158.566 1116.5,125.5 Z M 1415.5,247.5 C 1436.41,247.173 1457.24,247.507 1478,248.5C 1486.92,304.838 1495.76,361.172 1504.5,417.5C 1494.72,430.132 1485.89,443.465 1478,457.5C 1465.01,485.1 1460.01,514.1 1463,544.5C 1469.99,589.727 1493.49,622.894 1533.5,644C 1535.44,644.813 1537.44,645.313 1539.5,645.5C 1540.65,652.35 1541.65,659.183 1542.5,666C 1515.12,662.66 1487.79,658.66 1460.5,654C 1456.85,653.501 1453.18,653.335 1449.5,653.5C 1441.6,598.133 1433.44,542.8 1425,487.5C 1424.59,487.043 1424.09,486.709 1423.5,486.5C 1411.94,516.618 1400.11,546.618 1388,576.5C 1372.61,542.058 1356.95,507.724 1341,473.5C 1339.29,469.485 1337.12,465.818 1334.5,462.5C 1333.1,464.972 1332.27,467.638 1332,470.5C 1325.3,512.145 1318.8,553.811 1312.5,595.5C 1283.29,591.118 1254.29,585.951 1225.5,580C 1229.63,556.592 1233.46,533.092 1237,509.5C 1250.35,495.651 1263.52,481.651 1276.5,467.5C 1266.62,459.119 1257.29,450.286 1248.5,441C 1258.62,382.898 1268.29,324.731 1277.5,266.5C 1307.17,266.5 1336.83,266.5 1366.5,266.5C 1373.3,304.825 1380.13,343.158 1387,381.5C 1387.15,384.119 1387.98,386.453 1389.5,388.5C 1390.19,387.975 1390.69,387.308 1391,386.5C 1398.6,340.04 1406.76,293.706 1415.5,247.5 Z M 744.5,250.5 C 746.22,252.658 747.053,255.325 747,258.5C 749.094,295.207 751.594,331.874 754.5,368.5C 782.775,329.05 811.275,289.717 840,250.5C 866.562,275.396 893.228,300.73 920,326.5C 920.667,327.5 920.667,328.5 920,329.5C 881.428,368.752 843.261,408.919 805.5,450C 806.444,451.477 807.777,452.477 809.5,453C 839.048,464.107 868.382,475.773 897.5,488C 903.278,490.537 909.278,492.37 915.5,493.5C 924.152,511.683 936.486,527.183 952.5,540C 979.853,560.994 1010.85,573.16 1045.5,576.5C 1045.83,601.842 1045.5,627.175 1044.5,652.5C 952.079,606.359 859.746,560.025 767.5,513.5C 767.496,562.163 767.163,610.829 766.5,659.5C 743.497,662.834 720.497,666.167 697.5,669.5C 695.99,649.903 693.99,630.403 691.5,611C 718.939,565.715 723.439,518.215 705,468.5C 697.915,453.34 688.582,439.673 677,427.5C 672.774,386.907 669.274,346.24 666.5,305.5C 655.844,307.825 645.177,310.158 634.5,312.5C 633.87,302.829 633.203,293.162 632.5,283.5C 670.108,272.99 707.441,261.99 744.5,250.5 Z M 260.5,263.5 C 291.967,262.313 322.967,265.48 353.5,273C 381.408,282.845 404.908,299.011 424,321.5C 446.302,350.405 452.969,382.738 444,418.5C 432.087,456.51 411.92,489.343 383.5,517C 367,532.166 349.333,545.832 330.5,558C 346.909,617.978 362.409,678.144 377,738.5C 352.741,746.697 328.407,754.697 304,762.5C 294.821,742.846 285.487,723.179 276,703.5C 233.045,606.914 190.045,510.248 147,413.5C 145.612,412.446 144.112,412.28 142.5,413C 130.788,419.661 118.788,425.328 106.5,430C 88.5622,398.628 70.2289,367.461 51.5,336.5C 115.26,295.599 184.926,271.266 260.5,263.5 Z M 1077.5,285.5 C 1123.16,284.362 1160.83,300.529 1190.5,334C 1151.97,374.198 1113.8,414.698 1076,455.5C 1075.52,456.448 1075.35,457.448 1075.5,458.5C 1107.08,459.276 1133.92,448.609 1156,426.5C 1158,423.833 1160,421.167 1162,418.5C 1181.62,435.953 1201.12,453.62 1220.5,471.5C 1202.33,490.584 1181.33,505.75 1157.5,517C 1136.83,525.667 1115.5,532.334 1093.5,537C 1051.2,544.418 1012.53,536.085 977.5,512C 944.19,484.075 930.023,448.242 935,404.5C 938.661,374.344 951.494,348.844 973.5,328C 1003.16,302.06 1037.82,287.893 1077.5,285.5 Z M 1702.5,291.5 C 1740.15,298.703 1777.82,305.869 1815.5,313C 1818.7,313.396 1821.53,314.562 1824,316.5C 1836.54,376.856 1849.2,437.189 1862,497.5C 1863.04,502.664 1864.54,507.664 1866.5,512.5C 1880.71,454.185 1894.88,395.852 1909,337.5C 1909.56,336.978 1910.23,336.645 1911,336.5C 1938.21,342.125 1965.37,347.958 1992.5,354C 1995.8,354.487 1998.8,355.653 2001.5,357.5C 1957.81,489.583 1914.14,621.583 1870.5,753.5C 1866.5,754.014 1862.5,753.514 1858.5,752C 1840.99,746.196 1823.33,741.03 1805.5,736.5C 1803.51,658.506 1801.68,580.506 1800,502.5C 1799.82,499.447 1799.32,496.447 1798.5,493.5C 1787.31,555.886 1775.98,618.219 1764.5,680.5C 1741.63,676.558 1718.8,672.558 1696,668.5C 1696.59,651.074 1698.26,633.741 1701,616.5C 1736.63,585.391 1756.97,546.058 1762,498.5C 1763.39,468.096 1756.05,440.096 1740,414.5C 1735.03,407.56 1729.36,401.227 1723,395.5C 1722.36,394.391 1721.86,393.225 1721.5,392C 1723.29,371.156 1725.29,350.323 1727.5,329.5C 1718.53,328.351 1709.86,326.018 1701.5,322.5C 1700.93,312.169 1701.26,301.836 1702.5,291.5 Z M 1222.5,358.5 C 1221.7,376.217 1219.03,393.884 1214.5,411.5C 1206.99,405.157 1199.66,398.657 1192.5,392C 1202.64,380.814 1212.64,369.647 1222.5,358.5 Z M 1058.5,362.5 C 1064.86,362.476 1071.19,362.81 1077.5,363.5C 1077.65,364.552 1077.48,365.552 1077,366.5C 1060.38,384.794 1044.05,403.461 1028,422.5C 1018.63,397.159 1025.79,377.993 1049.5,365C 1052.63,364.159 1055.63,363.325 1058.5,362.5 Z M 1612.5,393.5 C 1654.63,387.846 1688.46,401.513 1714,434.5C 1729.27,460.808 1733.27,488.808 1726,518.5C 1707.4,575.443 1668.9,610.276 1610.5,623C 1573.89,627.843 1543.05,617.01 1518,590.5C 1497.73,564.487 1491.06,535.154 1498,502.5C 1510.41,457.535 1537.58,424.702 1579.5,404C 1590.38,399.931 1601.38,396.431 1612.5,393.5 Z M 313.5,399.5 C 348.304,399.092 360.137,415.426 349,448.5C 345.169,456.169 340.002,462.836 333.5,468.5C 332.029,467.619 331.196,466.286 331,464.5C 324.472,443.46 317.972,422.46 311.5,401.5C 312.243,400.818 312.909,400.151 313.5,399.5 Z M 896.5,405.5 C 896.557,412.638 896.724,419.971 897,427.5C 897.583,435.64 898.583,443.64 900,451.5C 888.557,446.528 877.057,441.695 865.5,437C 875.944,426.616 886.277,416.116 896.5,405.5 Z M 572.5,419.5 C 619.415,418.098 653.581,437.765 675,478.5C 689.634,523.748 682.967,565.414 655,603.5C 621.586,647.613 577.086,667.447 521.5,663C 478.437,652.937 451.604,626.437 441,583.5C 436.02,543.136 446.02,507.136 471,475.5C 497.271,443.768 531.105,425.101 572.5,419.5 Z"/></g>
<g><path style="opacity:0.918" fill="#fff" d="M 1050.5,337.5 C 1076.29,333.76 1097.95,341.094 1115.5,359.5C 1087.39,391.95 1059.22,424.284 1031,456.5C 1028.11,459.082 1025.27,458.916 1022.5,456C 999.265,434.072 992.765,407.905 1003,377.5C 1012.94,356.976 1028.77,343.643 1050.5,337.5 Z M 1058.5,362.5 C 1055.63,363.325 1052.63,364.159 1049.5,365C 1025.79,377.993 1018.63,397.159 1028,422.5C 1044.05,403.461 1060.38,384.794 1077,366.5C 1077.48,365.552 1077.65,364.552 1077.5,363.5C 1071.19,362.81 1064.86,362.476 1058.5,362.5 Z"/></g>
<g><path style="opacity:0.936" fill="#fff" d="M 309.5,370.5 C 365.964,368.745 389.464,395.745 380,451.5C 373.838,469.341 363.338,484.174 348.5,496C 338.93,504.033 328.763,511.2 318,517.5C 316.523,516.556 315.523,515.223 315,513.5C 301.629,470.387 288.462,427.221 275.5,384C 276.868,382.127 278.534,380.46 280.5,379C 285.988,377.393 291.322,375.393 296.5,373C 301.076,372.728 305.409,371.895 309.5,370.5 Z M 313.5,399.5 C 312.909,400.151 312.243,400.818 311.5,401.5C 317.972,422.46 324.472,443.46 331,464.5C 331.196,466.286 332.029,467.619 333.5,468.5C 340.002,462.836 345.169,456.169 349,448.5C 360.137,415.426 348.304,399.092 313.5,399.5 Z"/></g>
<g><path style="opacity:0.934" fill="#fff" d="M 1611.5,415.5 C 1616.51,415.334 1621.51,415.501 1626.5,416C 1629.04,416.14 1631.38,416.806 1633.5,418C 1616.64,419.885 1605.47,428.718 1600,444.5C 1598.92,463.432 1607.42,475.932 1625.5,482C 1645.14,485.919 1659.98,479.419 1670,462.5C 1671.21,455.913 1671.88,449.246 1672,442.5C 1681.55,456.305 1684.21,471.305 1680,487.5C 1673.97,507.526 1661.14,521.026 1641.5,528C 1612.21,536.014 1587.71,528.847 1568,506.5C 1554.41,484.7 1554.08,462.7 1567,440.5C 1578.4,426.052 1593.23,417.719 1611.5,415.5 Z"/></g>
<g><path style="opacity:0.936" fill="#fff" d="M 573.5,445.5 C 577.643,445.936 581.643,446.77 585.5,448C 558.42,453.35 548.587,469.184 556,495.5C 568.43,512.194 584.597,517.028 604.5,510C 620.407,502.02 627.241,489.186 625,471.5C 635.435,485.608 638.435,501.274 634,518.5C 627.593,537.907 614.76,551.074 595.5,558C 572.789,564.714 551.789,561.381 532.5,548C 509.134,525.493 505.301,499.993 521,471.5C 534.503,454.723 552.003,446.057 573.5,445.5 Z"/></g>
</svg>
