<?xml version="1.0" standalone="no"?>
<!DOCTYPE svg PUBLIC "-//W3C//DTD SVG 20010904//EN"
 "http://www.w3.org/TR/2001/REC-SVG-20010904/DTD/svg10.dtd">
<svg version="1.0" xmlns="http://www.w3.org/2000/svg"
 width="730.000000pt" height="627.000000pt" viewBox="0 0 730.000000 627.000000"
 preserveAspectRatio="xMidYMid meet">

<g transform="translate(0.000000,627.000000) scale(0.100000,-0.100000)"
fill="#fff" stroke="none">
<path d="M4454 6040 c-52 -26 -87 -64 -108 -118 -19 -51 -20 -77 -4 -137 l12
-45 -41 -43 c-68 -70 -89 -130 -72 -208 11 -52 63 -120 111 -145 35 -18 105
-23 164 -11 39 8 44 6 88 -32 68 -59 103 -74 168 -74 81 0 143 38 181 113 29
56 32 106 12 181 -6 21 1 33 39 72 110 114 90 276 -44 345 -40 21 -54 23 -133
18 l-87 -6 -43 42 c-23 22 -56 47 -74 54 -47 20 -121 17 -169 -6z"/>
<path d="M5478 5221 c-71 -28 -112 -57 -167 -116 -70 -77 -93 -144 -93 -265 1
-137 -21 -155 -133 -104 -51 24 -66 26 -143 22 -134 -6 -214 -58 -274 -177
-13 -25 -29 -54 -37 -63 -23 -29 -63 -22 -102 18 -60 63 -102 79 -204 79 -104
0 -133 -12 -199 -80 -62 -65 -97 -180 -64 -213 9 -9 197 -12 786 -12 776 0
802 -1 824 -34 14 -20 8 -56 -12 -76 -16 -16 -33 -20 -89 -20 -54 0 -70 -4
-75 -16 -3 -9 -6 -190 -6 -402 0 -356 1 -390 18 -421 35 -65 118 -89 179 -51
57 34 58 39 63 365 5 253 9 306 23 337 92 201 364 210 461 16 22 -44 26 -66
26 -137 0 -63 6 -97 20 -128 41 -91 139 -109 209 -39 l36 36 3 206 c3 149 0
209 -8 220 -9 10 -35 14 -96 14 -99 0 -128 17 -122 73 5 54 22 57 329 57 318
0 306 -4 295 85 -14 125 -105 248 -223 302 -70 32 -169 41 -264 23 -63 -12
-71 -12 -89 5 -11 10 -20 28 -20 39 -1 35 -39 109 -78 149 -57 60 -105 80
-199 85 l-82 4 -50 69 c-55 76 -130 132 -206 155 -67 20 -179 17 -237 -5z"/>
<path d="M3114 5044 c-89 -32 -154 -126 -154 -224 0 -70 25 -123 84 -180 25
-24 46 -49 46 -56 0 -6 -9 -31 -20 -55 -52 -114 4 -251 125 -308 109 -51 249
0 306 111 10 21 19 45 19 55 0 36 29 63 68 63 53 1 111 30 155 79 48 53 57 78
57 154 -1 172 -139 270 -317 225 -44 -11 -47 -10 -62 12 -9 13 -36 44 -61 70
-67 68 -153 87 -246 54z"/>
<path d="M4016 4161 c-20 -22 -19 -42 14 -310 20 -159 33 -187 91 -208 22 -8
110 -12 251 -12 119 -1 241 -6 270 -12 123 -25 279 -127 356 -232 48 -64 64
-95 93 -177 22 -61 24 -85 29 -360 l5 -295 67 -7 c96 -9 165 -32 233 -76 80
-52 130 -109 174 -201 35 -74 36 -78 36 -196 0 -112 -2 -125 -32 -195 -18 -41
-45 -106 -61 -145 -17 -38 -84 -198 -150 -355 -66 -157 -163 -388 -216 -515
-53 -126 -104 -245 -114 -263 -22 -44 -75 -90 -129 -114 -43 -19 -43 -19 -43
-72 0 -42 5 -57 23 -74 l23 -22 640 0 c696 0 674 -2 688 56 14 54 3 61 -95 66
-78 5 -100 11 -164 42 -85 42 -149 107 -192 194 -26 52 -28 66 -28 172 0 111
2 118 34 180 79 154 254 246 416 219 89 -14 89 -14 114 45 13 31 47 82 80 118
56 60 89 81 189 119 19 6 40 22 48 34 9 14 27 131 49 316 19 162 55 470 80
684 25 215 77 649 116 965 38 316 68 591 67 610 l-3 35 -150 3 c-132 2 -151 1
-162 -15 -9 -12 -13 -73 -13 -217 -1 -217 -6 -248 -55 -311 -14 -20 -45 -48
-68 -63 -38 -24 -51 -27 -132 -27 -86 0 -92 1 -137 34 -87 62 -118 132 -118
264 0 109 -25 152 -102 176 -32 11 -43 10 -82 -7 -74 -33 -76 -41 -76 -355 0
-316 -5 -346 -72 -422 -54 -61 -105 -84 -186 -85 -75 0 -116 15 -172 67 -85
76 -84 72 -90 543 l-5 415 -661 3 c-645 2 -661 2 -678 -17z"/>
<path d="M1040 3494 c-176 -47 -327 -210 -359 -388 -6 -33 -11 -177 -11 -322
l0 -262 63 -35 c61 -35 124 -93 164 -152 21 -31 85 -176 261 -600 55 -132 107
-256 115 -275 20 -46 65 -88 107 -100 42 -12 2837 -13 2899 -1 81 16 92 35
286 501 97 234 190 446 207 473 38 59 117 131 180 163 l48 24 0 263 c0 146 -5
290 -11 323 -33 182 -183 341 -364 389 -48 12 -132 15 -458 15 l-398 0 -24
-25 -25 -24 0 -490 0 -489 43 -59 c129 -175 137 -187 137 -218 0 -40 -16 -55
-57 -55 -29 0 -39 9 -108 100 -42 55 -79 100 -84 100 -4 0 -40 -45 -80 -100
-66 -92 -75 -100 -105 -100 -37 0 -66 25 -66 57 0 11 43 79 95 149 l95 129 0
488 0 488 -25 24 -24 25 -706 0 -706 0 -24 -25 -25 -24 0 -481 0 -481 23 -32
c13 -18 56 -75 95 -129 51 -68 72 -105 72 -126 0 -50 -53 -79 -91 -49 -8 7
-46 54 -83 105 -38 50 -70 92 -72 92 -2 0 -37 -45 -79 -100 -77 -102 -105
-122 -143 -101 -11 6 -23 22 -26 37 -8 31 9 62 105 189 l69 92 0 496 0 496
-26 20 c-26 20 -37 21 -428 20 -320 0 -412 -3 -456 -15z"/>
<path d="M409 2412 c-213 -56 -314 -283 -222 -497 17 -38 131 -308 253 -600
122 -291 236 -563 254 -604 36 -85 63 -109 132 -122 77 -14 84 -29 84 -174 0
-151 3 -155 108 -155 69 0 72 1 95 33 13 17 49 84 81 147 32 63 67 123 78 133
19 16 108 17 1553 17 947 0 1543 -4 1559 -10 18 -7 41 -42 91 -138 93 -184 91
-182 179 -182 103 0 106 5 106 157 0 146 7 159 88 172 36 5 62 16 77 32 13 13
59 110 103 214 254 603 409 972 445 1060 38 90 42 108 42 185 0 73 -4 93 -29
143 -39 80 -90 131 -170 168 -121 57 -253 41 -364 -44 -58 -44 -88 -97 -177
-308 -300 -714 -285 -681 -335 -730 -87 -85 43 -79 -1600 -79 -1645 0 -1524
-6 -1609 78 -50 50 -40 28 -286 612 -28 69 -72 172 -96 230 -69 162 -157 245
-289 270 -67 13 -71 12 -151 -8z"/>
<path d="M6632 1401 c-101 -35 -192 -156 -192 -255 0 -63 -58 -84 -124 -45
-50 29 -158 36 -223 15 -103 -34 -180 -134 -190 -246 -6 -66 7 -115 48 -181
37 -59 87 -93 167 -115 60 -17 67 -17 134 -1 64 16 73 16 94 2 15 -9 25 -29
29 -52 14 -91 36 -141 83 -191 109 -114 274 -121 392 -15 61 55 94 127 94 208
0 87 -19 131 -86 202 -52 53 -59 66 -56 94 2 27 11 38 42 55 139 78 197 221
146 358 -29 75 -91 137 -166 165 -67 26 -122 26 -192 2z"/>
</g>
</svg>
