<?xml version="1.0" standalone="no"?>
<!DOCTYPE svg PUBLIC "-//W3C//DTD SVG 20010904//EN"
 "http://www.w3.org/TR/2001/REC-SVG-20010904/DTD/svg10.dtd">
<svg version="1.0" xmlns="http://www.w3.org/2000/svg"
 width="512.000000pt" height="512.000000pt" viewBox="0 0 512.000000 512.000000"
 preserveAspectRatio="xMidYMid meet">

<g transform="translate(0.000000,512.000000) scale(0.100000,-0.100000)"
fill="#fff" stroke="none">
<path d="M3682 5107 c-30 -14 -31 -16 -367 -746 l-278 -603 -36 5 c-20 4 -108
21 -196 38 -135 28 -181 33 -300 32 -123 0 -151 -3 -230 -27 -49 -15 -125 -46
-168 -69 -103 -56 -579 -447 -603 -496 -14 -28 -16 -55 -12 -150 5 -122 25
-190 68 -236 19 -20 19 -22 -15 -126 -19 -58 -38 -135 -42 -170 -8 -63 -9 -64
-38 -63 -17 0 -97 13 -180 30 -183 35 -356 39 -470 10 -81 -21 -214 -80 -277
-124 -81 -56 -493 -402 -515 -434 -21 -28 -23 -43 -23 -144 0 -123 13 -179 58
-246 l26 -40 -32 -96 c-43 -132 -56 -219 -49 -321 8 -115 28 -188 82 -297 70
-144 223 -292 361 -350 113 -48 1256 -416 1360 -438 185 -39 297 -46 714 -46
l388 0 184 91 c278 138 348 191 438 330 74 114 109 274 91 409 -14 106 -40
180 -117 334 -35 71 -62 131 -61 133 2 1 41 -2 88 -7 46 -5 260 -10 476 -10
l392 0 223 111 c216 108 226 114 304 193 155 155 218 350 183 566 -12 78 -43
157 -121 315 -162 326 -414 625 -707 839 l-63 46 -54 -85 c-30 -46 -54 -88
-54 -93 0 -4 28 -29 63 -55 80 -58 247 -205 247 -217 0 -5 -48 -46 -107 -91
-294 -225 -574 -475 -717 -639 l-57 -65 -46 53 -46 53 -74 -73 c-40 -40 -73
-76 -73 -81 0 -5 44 -54 98 -110 53 -57 137 -147 186 -202 50 -55 124 -135
165 -178 l76 -77 -65 0 c-104 0 -295 20 -394 40 -75 15 -95 23 -116 47 -14 16
-65 76 -114 132 -165 191 -380 357 -589 456 -146 69 -620 222 -806 260 l-34 7
6 72 c5 67 40 201 56 219 16 16 555 -125 830 -218 74 -24 136 -43 138 -42 1 2
18 47 38 100 l35 98 -28 10 c-58 22 -406 129 -419 129 -13 0 -14 20 -11 123 3
104 7 129 27 167 54 103 226 248 386 326 100 49 261 94 334 94 40 0 324 -70
338 -83 2 -3 -140 -232 -318 -509 -177 -276 -329 -519 -336 -539 -13 -31 -13
-40 0 -71 13 -30 31 -44 129 -95 63 -33 131 -66 150 -72 79 -26 17 -108 1068
1409 531 766 971 1405 979 1420 20 40 7 93 -30 124 l-31 26 -249 0 -249 0 -29
-27 c-16 -16 -237 -354 -492 -751 l-462 -724 -30 6 c-17 3 -32 8 -35 11 -2 2
161 293 363 647 202 353 377 660 388 681 17 34 18 43 8 78 -8 27 -23 46 -44
59 -29 18 -51 20 -272 19 -156 0 -248 -4 -263 -12z m283 -214 c-3 -10 -158
-282 -343 -605 -260 -455 -340 -588 -355 -588 -14 0 -17 5 -13 18 4 9 129 281
278 605 l271 587 85 0 c76 0 83 -2 77 -17z m835 8 c0 -14 -1734 -2514 -1748
-2519 -6 -2 -12 1 -12 7 0 9 1575 2476 1601 2507 13 16 159 20 159 5z m-2163
-1287 c19 -5 11 -13 -55 -53 -43 -25 -104 -67 -137 -93 -76 -58 -204 -191
-235 -243 -13 -22 -24 -41 -25 -43 -1 -1 -69 14 -151 33 -82 19 -159 38 -172
41 -20 4 -6 19 109 115 149 124 191 155 265 192 48 24 133 50 199 60 35 6 170
-1 202 -9z m-699 -596 l192 -43 0 -52 c0 -29 -4 -53 -8 -53 -5 0 -87 18 -183
40 -154 36 -177 44 -201 71 -33 35 -40 94 -10 85 9 -2 104 -24 210 -48z m2733
-432 c44 -66 78 -124 76 -130 -6 -18 -205 -182 -322 -267 -155 -110 -262 -162
-425 -203 -177 -45 -288 -62 -302 -48 -14 14 137 187 259 299 127 115 339 291
482 399 102 78 126 92 138 82 9 -7 51 -66 94 -132z m-3523 -252 c19 -6 12 -12
-51 -48 -147 -84 -303 -223 -373 -332 -21 -33 -41 -54 -48 -51 -7 3 -78 20
-157 38 -79 17 -149 35 -156 38 -12 6 192 182 299 258 66 46 177 90 259 103
54 9 184 5 227 -6z m3730 -146 c41 -126 36 -228 -15 -335 -47 -102 -108 -154
-274 -238 -82 -42 -153 -74 -158 -71 -4 3 -16 27 -26 53 -10 26 -40 92 -66
145 -27 54 -49 102 -49 106 0 5 28 24 63 42 115 62 286 185 466 337 14 12 29
22 33 23 3 0 15 -28 26 -62z m-3177 25 c6 -6 -15 -26 -55 -56 -60 -44 -325
-316 -371 -380 l-20 -28 -173 48 c-94 26 -172 50 -172 54 0 10 126 133 183
176 156 120 383 206 525 200 40 -2 77 -8 83 -14z m465 -131 c211 -67 337 -122
279 -122 -32 0 -237 -115 -314 -176 -81 -66 -181 -173 -217 -233 -10 -17 -22
-31 -26 -31 -4 0 -57 20 -118 45 -90 37 -192 76 -288 110 -19 7 215 254 298
315 79 58 213 130 243 130 12 0 76 -17 143 -38z m623 -326 c36 -30 84 -73 106
-95 34 -35 37 -43 25 -54 -8 -8 -82 -66 -165 -130 -82 -64 -199 -158 -259
-209 l-110 -94 -70 71 c-39 39 -106 93 -148 120 -43 26 -78 53 -78 59 0 6 18
34 40 61 114 141 292 254 474 300 50 13 97 24 105 25 8 0 44 -24 80 -54z
m-2341 -17 l192 -44 0 -62 0 -62 -67 20 c-38 10 -119 33 -182 50 -132 36 -146
43 -166 85 -22 47 -20 67 8 61 12 -3 109 -25 215 -48z m3649 19 c104 -219 104
-220 80 -213 -64 18 -193 91 -244 139 l-57 53 85 20 c112 27 124 27 136 1z
m-3082 -163 c87 -25 160 -47 162 -48 5 -6 -10 -137 -16 -137 -3 0 -73 22 -156
49 l-150 48 -3 67 c-2 36 -1 66 1 66 2 0 75 -20 162 -45z m713 -241 l94 -39
-6 -50 c-3 -27 -6 -83 -6 -123 l0 -73 -82 69 c-109 92 -163 124 -259 158 l-79
29 0 77 0 78 123 -44 c67 -24 164 -61 215 -82z m-1316 60 c274 -74 758 -231
993 -323 56 -21 105 -50 160 -95 96 -77 363 -348 534 -541 68 -77 149 -164
180 -194 l56 -54 -145 7 c-281 13 -322 23 -1061 266 -666 219 -678 225 -777
336 -99 111 -152 277 -133 416 9 62 49 218 57 218 2 0 63 -16 136 -36z m2738
-66 c36 -52 75 -113 88 -135 l22 -41 -130 -107 c-191 -160 -409 -304 -440
-293 -5 2 -45 56 -89 120 l-80 117 92 79 c86 73 255 209 392 315 33 25 64 45
70 43 5 -1 39 -45 75 -98z m-1044 -200 c44 -33 114 -108 114 -122 0 -11 -164
-191 -174 -191 -7 0 -12 62 -14 183 -2 146 0 182 10 176 7 -4 36 -25 64 -46z
m1282 -249 c18 -53 22 -81 19 -160 -2 -85 -6 -103 -37 -165 -52 -107 -111
-158 -277 -242 -78 -40 -146 -72 -150 -72 -5 0 -15 17 -22 38 -7 20 -39 92
-71 159 l-58 121 42 19 c92 41 443 294 495 357 22 26 34 15 59 -55z m-968
-124 c27 -41 50 -76 50 -78 0 -7 -171 -38 -220 -40 -31 -1 -45 2 -45 11 0 14
144 182 156 182 5 0 31 -34 59 -75z m219 -372 c26 -54 51 -108 55 -120 l7 -22
-56 19 c-31 11 -82 35 -113 54 -73 45 -152 117 -134 123 27 10 158 41 174 42
13 1 32 -27 67 -96z"/>
</g>
</svg>
