<?xml version="1.0" encoding="UTF-8"?>
<!DOCTYPE svg PUBLIC "-//W3C//DTD SVG 1.1//EN" "http://www.w3.org/Graphics/SVG/1.1/DTD/svg11.dtd">
<svg xmlns="http://www.w3.org/2000/svg" version="1.1" width="512px" height="512px" style="shape-rendering:geometricPrecision; text-rendering:geometricPrecision; image-rendering:optimizeQuality; fill-rule:evenodd; clip-rule:evenodd" xmlns:xlink="http://www.w3.org/1999/xlink">
<g><path style="opacity:0.941" fill="#fff" d="M 237.5,48.5 C 245.174,48.3336 252.841,48.5003 260.5,49C 272.421,70.1731 284.087,91.5065 295.5,113C 308.236,113.058 320.903,113.725 333.5,115C 349.128,123.769 352.962,136.269 345,152.5C 340.633,158.434 334.8,161.934 327.5,163C 316.812,162.909 306.146,163.076 295.5,163.5C 284.294,184.746 272.961,205.913 261.5,227C 252.167,227.667 242.833,227.667 233.5,227C 227.214,224.15 224.714,219.316 226,212.5C 230.942,195.177 235.775,177.844 240.5,160.5C 232.826,160.334 225.159,160.5 217.5,161C 213.167,167.333 208.833,173.667 204.5,180C 197.433,180.839 190.433,180.506 183.5,179C 179.973,176.784 177.806,173.617 177,169.5C 176.333,148.833 176.333,128.167 177,107.5C 177.715,101.785 180.882,98.2849 186.5,97C 192.5,96.3333 198.5,96.3333 204.5,97C 208.748,102.828 212.748,108.828 216.5,115C 224.521,115.832 232.521,115.665 240.5,114.5C 235.297,96.891 230.297,79.2244 225.5,61.5C 226.477,54.1955 230.477,49.8622 237.5,48.5 Z M 246.5,67.5 C 247.822,67.33 248.989,67.6634 250,68.5C 261.628,90.4388 273.628,112.105 286,133.5C 297.485,132.8 308.985,132.134 320.5,131.5C 325.418,131.447 328.752,133.613 330.5,138C 329.917,140.499 328.584,142.499 326.5,144C 312.483,143.948 298.483,144.114 284.5,144.5C 272.746,165.674 261.246,187.007 250,208.5C 248.817,209.731 247.651,209.731 246.5,208.5C 253.244,186.604 259.577,164.604 265.5,142.5C 245.831,142.333 226.164,142.5 206.5,143C 203.124,148.253 199.624,153.42 196,158.5C 195.333,145.167 195.333,131.833 196,118.5C 199.624,123.58 203.124,128.747 206.5,134C 226.164,134.5 245.831,134.667 265.5,134.5C 259.37,112.109 253.036,89.7758 246.5,67.5 Z"/></g>
<g><path style="opacity:0.926" fill="#fff" d="M 161.5,140.5 C 162.496,140.414 163.329,140.748 164,141.5C 165.911,148.312 167.745,155.145 169.5,162C 169.167,162.5 168.833,163 168.5,163.5C 157.929,166.302 147.595,169.802 137.5,174C 136.056,174.781 134.723,174.614 133.5,173.5C 130.833,166.833 128.167,160.167 125.5,153.5C 137.306,148.345 149.306,144.012 161.5,140.5 Z"/></g>
<g><path style="opacity:0.923" fill="#fff" d="M 356.5,148.5 C 369.192,153.013 381.525,158.346 393.5,164.5C 390,171.5 386.5,178.5 383,185.5C 371.544,180.188 360.044,175.021 348.5,170C 351.072,162.783 353.739,155.616 356.5,148.5 Z"/></g>
<g><path style="opacity:0.917" fill="#fff" d="M 89.5,169.5 C 90.3764,169.369 91.0431,169.702 91.5,170.5C 94.6667,176.167 97.8333,181.833 101,187.5C 101.667,188.5 101.667,189.5 101,190.5C 91.2443,196.293 81.7443,202.46 72.5,209C 71.5,209.667 70.5,209.667 69.5,209C 64.9217,203.177 60.5884,197.177 56.5,191C 67.2237,183.312 78.2237,176.145 89.5,169.5 Z"/></g>
<g><path style="opacity:0.918" fill="#fff" d="M 426.5,183.5 C 437.414,190.546 447.914,198.213 458,206.5C 458.667,207.5 458.667,208.5 458,209.5C 453.323,215.009 448.49,220.342 443.5,225.5C 433.802,217.991 424.135,210.491 414.5,203C 418.313,196.361 422.313,189.861 426.5,183.5 Z"/></g>
<g><path style="opacity:0.911" fill="#fff" d="M -0.5,245.5 C -0.5,244.5 -0.5,243.5 -0.5,242.5C 8.11861,233.215 17.1186,224.215 26.5,215.5C 32.5189,220.552 37.8523,226.219 42.5,232.5C 33.8058,241.527 25.1391,250.527 16.5,259.5C 10.8142,254.81 5.14749,250.143 -0.5,245.5 Z"/></g>
<g><path style="opacity:0.914" fill="#fff" d="M 511.5,263.5 C 511.5,264.5 511.5,265.5 511.5,266.5C 505.518,270.809 499.518,275.142 493.5,279.5C 485.53,269.858 477.53,260.191 469.5,250.5C 475.14,245.195 480.807,239.861 486.5,234.5C 495.23,243.891 503.563,253.558 511.5,263.5 Z"/></g>
<g><path style="opacity:0.947" fill="#fff" d="M 228.5,261.5 C 313.584,257.784 378.418,291.784 423,363.5C 440.114,394.289 448.614,427.289 448.5,462.5C 438.478,462.832 428.478,462.499 418.5,461.5C 420.583,460.041 422.75,458.708 425,457.5C 420.143,385.592 385.643,333.425 321.5,301C 293.437,288.387 264.104,283.387 233.5,286C 228.267,291.626 224.434,298.126 222,305.5C 218.831,319.01 217.165,332.677 217,346.5C 218.419,347.46 219.919,348.293 221.5,349C 234.402,352.368 247.402,355.368 260.5,358C 266.724,362.615 270.224,368.782 271,376.5C 268.681,411.852 281.515,440.185 309.5,461.5C 297.833,462.833 286.167,462.833 274.5,461.5C 254.487,437.46 245.487,409.794 247.5,378.5C 231.733,378.044 217.066,373.877 203.5,366C 195.933,360.031 192.266,352.198 192.5,342.5C 194.043,324.644 197.043,307.311 201.5,290.5C 144.157,307.343 103.991,343.343 81,398.5C 79.5987,402.871 78.0987,407.204 76.5,411.5C 88.2494,414.917 99.5827,419.417 110.5,425C 123.685,434.047 127.351,446.213 121.5,461.5C 113.862,462.497 106.196,462.831 98.5,462.5C 98.4742,457.205 99.1409,452.039 100.5,447C 91.1844,441.454 81.3511,437.954 71,436.5C 70.0243,445.163 69.191,453.83 68.5,462.5C 60.8333,462.5 53.1667,462.5 45.5,462.5C 47.9761,385.346 81.9761,326.846 147.5,287C 172.939,273.129 199.939,264.629 228.5,261.5 Z"/></g>
</svg>
