<?xml version="1.0" standalone="no"?>
<!DOCTYPE svg PUBLIC "-//W3C//DTD SVG 20010904//EN"
 "http://www.w3.org/TR/2001/REC-SVG-20010904/DTD/svg10.dtd">
<svg version="1.0" xmlns="http://www.w3.org/2000/svg"
 width="512.000000pt" height="512.000000pt" viewBox="0 0 512.000000 512.000000"
 preserveAspectRatio="xMidYMid meet">

<g transform="translate(0.000000,512.000000) scale(0.100000,-0.100000)"
fill="#fff" stroke="none">
<path d="M2326 4601 c-38 -25 -55 -57 -55 -101 0 -19 33 -148 73 -287 l73
-251 -30 -6 c-16 -3 -71 -6 -122 -6 l-92 0 -63 95 -63 95 -96 0 c-106 0 -130
-9 -156 -60 -22 -43 -22 -657 0 -700 24 -46 62 -60 163 -60 l89 0 63 95 63 95
124 0 c114 0 124 -1 119 -17 -51 -161 -146 -509 -146 -533 0 -43 27 -86 67
-105 25 -12 60 -15 154 -13 l122 3 172 320 173 320 178 5 c203 6 232 14 296
90 113 131 50 334 -120 387 -35 11 -86 14 -200 11 l-153 -3 -173 320 -173 320
-129 3 c-114 2 -132 0 -158 -17z m355 -486 l174 -326 206 7 c202 7 207 6 228
-15 27 -27 27 -72 0 -97 -23 -20 -20 -20 -268 -14 l-163 4 -176 -327 c-146
-271 -180 -327 -197 -327 -21 0 -17 17 72 322 51 176 93 327 93 335 0 10 -53
13 -285 13 l-285 0 -57 -87 -58 -86 -3 106 c-1 59 -1 155 0 214 l3 106 55 -83
55 -82 285 1 c156 1 286 4 289 6 2 2 -37 146 -88 319 -50 173 -91 319 -91 325
0 6 8 11 18 11 14 0 62 -82 193 -325z"/>
<path d="M1550 3679 c-114 -35 -270 -92 -275 -100 -3 -4 9 -43 26 -86 17 -43
35 -88 40 -100 l8 -22 83 31 c46 17 122 42 171 56 62 18 87 30 87 42 0 13 -25
113 -46 183 -7 21 -13 21 -94 -4z"/>
<path d="M3541 3533 c-47 -128 -51 -119 59 -163 52 -20 126 -52 164 -69 37
-18 69 -31 71 -29 5 6 95 188 95 193 0 11 -325 155 -350 155 -5 0 -22 -39 -39
-87z"/>
<path d="M815 3356 c-70 -41 -172 -108 -234 -152 -1 -2 8 -18 22 -36 13 -18
43 -59 66 -90 l41 -57 105 69 c58 38 128 81 155 96 l50 27 -46 86 c-26 47 -52
91 -58 98 -8 9 -32 0 -101 -41z"/>
<path d="M4217 3185 c-31 -46 -58 -89 -59 -94 -2 -5 38 -39 87 -75 50 -36 114
-84 144 -108 l54 -43 34 40 c19 22 52 61 74 86 l38 46 -82 65 c-80 64 -224
168 -231 168 -1 0 -28 -38 -59 -85z"/>
<path d="M175 2858 c-50 -51 -110 -114 -133 -139 l-43 -46 86 -73 85 -73 123
128 c67 71 122 132 122 136 0 10 -134 159 -143 159 -4 0 -48 -42 -97 -92z"/>
<path d="M4786 2685 l-79 -74 36 -43 c21 -24 67 -81 104 -128 36 -47 72 -91
79 -99 10 -11 28 -2 103 51 l90 65 -52 70 c-61 81 -189 233 -197 233 -3 -1
-41 -34 -84 -75z"/>
<path d="M2365 2494 c-515 -39 -931 -220 -1282 -557 -372 -359 -577 -807 -618
-1355 l-6 -82 115 0 116 0 0 54 c0 50 18 207 24 214 6 5 208 -68 249 -90 46
-26 47 -29 34 -125 l-6 -53 113 0 114 0 11 75 c15 102 14 120 -8 163 -45 89
-164 162 -358 222 l-102 31 30 87 c16 48 59 146 95 217 217 436 620 771 1088
905 62 18 67 18 61 2 -31 -72 -56 -181 -75 -320 -24 -178 -23 -267 4 -324 50
-103 179 -171 383 -203 54 -8 108 -17 119 -20 21 -5 22 -11 26 -162 4 -145 7
-166 37 -258 39 -118 113 -265 179 -352 l47 -63 170 1 c162 0 169 1 145 17
-60 40 -157 144 -211 224 -100 152 -155 329 -143 461 12 140 -26 263 -95 311
-36 25 -76 36 -266 69 -104 19 -183 52 -191 81 -8 35 43 356 67 422 24 63 75
150 103 173 24 20 338 8 466 -18 397 -81 703 -248 972 -530 278 -292 462 -702
485 -1080 l6 -97 -29 -14 c-27 -14 -20 -15 110 -18 76 -1 141 0 144 3 3 3 0
66 -6 140 -44 480 -231 893 -561 1238 -296 309 -686 512 -1123 587 -114 19
-334 31 -433 24z"/>
</g>
</svg>
