<svg id="visual" viewBox="0 0 960 540" width="960" height="540" xmlns="http://www.w3.org/2000/svg" xmlns:xlink="http://www.w3.org/1999/xlink" version="1.1"><rect x="0" y="0" width="960" height="540" fill="#000"></rect><path d="M0 200L17.8 203.8C35.7 207.7 71.3 215.3 106.8 215.2C142.3 215 177.7 207 213.2 206C248.7 205 284.3 211 320 215.5C355.7 220 391.3 223 426.8 222.8C462.3 222.7 497.7 219.3 533.2 216.5C568.7 213.7 604.3 211.3 640 211.2C675.7 211 711.3 213 746.8 207.5C782.3 202 817.7 189 853.2 185.2C888.7 181.3 924.3 186.7 942.2 189.3L960 192L960 0L942.2 0C924.3 0 888.7 0 853.2 0C817.7 0 782.3 0 746.8 0C711.3 0 675.7 0 640 0C604.3 0 568.7 0 533.2 0C497.7 0 462.3 0 426.8 0C391.3 0 355.7 0 320 0C284.3 0 248.7 0 213.2 0C177.7 0 142.3 0 106.8 0C71.3 0 35.7 0 17.8 0L0 0Z" fill="#e53939"></path><path d="M0 183L17.8 182.2C35.7 181.3 71.3 179.7 106.8 174C142.3 168.3 177.7 158.7 213.2 158.2C248.7 157.7 284.3 166.3 320 170.5C355.7 174.7 391.3 174.3 426.8 171.3C462.3 168.3 497.7 162.7 533.2 164.3C568.7 166 604.3 175 640 175C675.7 175 711.3 166 746.8 162.3C782.3 158.7 817.7 160.3 853.2 164.7C888.7 169 924.3 176 942.2 179.5L960 183L960 0L942.2 0C924.3 0 888.7 0 853.2 0C817.7 0 782.3 0 746.8 0C711.3 0 675.7 0 640 0C604.3 0 568.7 0 533.2 0C497.7 0 462.3 0 426.8 0C391.3 0 355.7 0 320 0C284.3 0 248.7 0 213.2 0C177.7 0 142.3 0 106.8 0C71.3 0 35.7 0 17.8 0L0 0Z" fill="#e25756"></path><path d="M0 115L17.8 119.2C35.7 123.3 71.3 131.7 106.8 134.2C142.3 136.7 177.7 133.3 213.2 136.3C248.7 139.3 284.3 148.7 320 148.8C355.7 149 391.3 140 426.8 138.8C462.3 137.7 497.7 144.3 533.2 144.8C568.7 145.3 604.3 139.7 640 138.5C675.7 137.3 711.3 140.7 746.8 142.8C782.3 145 817.7 146 853.2 145.3C888.7 144.7 924.3 142.3 942.2 141.2L960 140L960 0L942.2 0C924.3 0 888.7 0 853.2 0C817.7 0 782.3 0 746.8 0C711.3 0 675.7 0 640 0C604.3 0 568.7 0 533.2 0C497.7 0 462.3 0 426.8 0C391.3 0 355.7 0 320 0C284.3 0 248.7 0 213.2 0C177.7 0 142.3 0 106.8 0C71.3 0 35.7 0 17.8 0L0 0Z" fill="#db7070"></path><path d="M0 115L17.8 111.5C35.7 108 71.3 101 106.8 97C142.3 93 177.7 92 213.2 92C248.7 92 284.3 93 320 93.7C355.7 94.3 391.3 94.7 426.8 93C462.3 91.3 497.7 87.7 533.2 86.5C568.7 85.3 604.3 86.7 640 92.3C675.7 98 711.3 108 746.8 111.5C782.3 115 817.7 112 853.2 108.8C888.7 105.7 924.3 102.3 942.2 100.7L960 99L960 0L942.2 0C924.3 0 888.7 0 853.2 0C817.7 0 782.3 0 746.8 0C711.3 0 675.7 0 640 0C604.3 0 568.7 0 533.2 0C497.7 0 462.3 0 426.8 0C391.3 0 355.7 0 320 0C284.3 0 248.7 0 213.2 0C177.7 0 142.3 0 106.8 0C71.3 0 35.7 0 17.8 0L0 0Z" fill="#db7070"></path><path d="M0 58L17.8 61.7C35.7 65.3 71.3 72.7 106.8 71.8C142.3 71 177.7 62 213.2 59.3C248.7 56.7 284.3 60.3 320 60.8C355.7 61.3 391.3 58.7 426.8 59.3C462.3 60 497.7 64 533.2 65.5C568.7 67 604.3 66 640 69.2C675.7 72.3 711.3 79.7 746.8 83.2C782.3 86.7 817.7 86.3 853.2 81.8C888.7 77.3 924.3 68.7 942.2 64.3L960 60L960 0L942.2 0C924.3 0 888.7 0 853.2 0C817.7 0 782.3 0 746.8 0C711.3 0 675.7 0 640 0C604.3 0 568.7 0 533.2 0C497.7 0 462.3 0 426.8 0C391.3 0 355.7 0 320 0C284.3 0 248.7 0 213.2 0C177.7 0 142.3 0 106.8 0C71.3 0 35.7 0 17.8 0L0 0Z" fill="#e25756"></path><path d="M0 44L17.8 43.7C35.7 43.3 71.3 42.7 106.8 41.8C142.3 41 177.7 40 213.2 41.5C248.7 43 284.3 47 320 45.5C355.7 44 391.3 37 426.8 36.8C462.3 36.7 497.7 43.3 533.2 44.2C568.7 45 604.3 40 640 35.7C675.7 31.3 711.3 27.7 746.8 30.7C782.3 33.7 817.7 43.3 853.2 44.5C888.7 45.7 924.3 38.3 942.2 34.7L960 31L960 0L942.2 0C924.3 0 888.7 0 853.2 0C817.7 0 782.3 0 746.8 0C711.3 0 675.7 0 640 0C604.3 0 568.7 0 533.2 0C497.7 0 462.3 0 426.8 0C391.3 0 355.7 0 320 0C284.3 0 248.7 0 213.2 0C177.7 0 142.3 0 106.8 0C71.3 0 35.7 0 17.8 0L0 0Z" fill="#e53939"></path></svg>